<svg width="65" height="64" viewBox="0 0 65 64" fill="none" xmlns="http://www.w3.org/2000/svg">
<g filter="url(#filter0_d_1_1442)">
<rect x="16.2556" y="12" width="32" height="32" rx="8" fill="#5A55D2" shape-rendering="crispEdges"/>
<path fill-rule="evenodd" clip-rule="evenodd" d="M33.2558 20.7498C33.2558 20.1975 32.8081 19.7498 32.2558 19.7498C31.7035 19.7498 31.2558 20.1975 31.2558 20.7498V27H25.0053C24.453 27 24.0053 27.4477 24.0053 28C24.0053 28.5523 24.453 29 25.0053 29H31.2558V35.2503C31.2558 35.8026 31.7035 36.2503 32.2558 36.2503C32.8081 36.2503 33.2558 35.8026 33.2558 35.2503V29H39.5058C40.0581 29 40.5058 28.5523 40.5058 28C40.5058 27.4477 40.0581 27 39.5058 27H33.2558V20.7498Z" fill="#FAFCFE"/>
</g>
<defs>
<filter id="filter0_d_1_1442" x="0.255554" y="0" width="64" height="64" filterUnits="userSpaceOnUse" color-interpolation-filters="sRGB">
<feFlood flood-opacity="0" result="BackgroundImageFix"/>
<feColorMatrix in="SourceAlpha" type="matrix" values="0 0 0 0 0 0 0 0 0 0 0 0 0 0 0 0 0 0 127 0" result="hardAlpha"/>
<feOffset dy="4"/>
<feGaussianBlur stdDeviation="8"/>
<feComposite in2="hardAlpha" operator="out"/>
<feColorMatrix type="matrix" values="0 0 0 0 0.352941 0 0 0 0 0.333333 0 0 0 0 0.823529 0 0 0 0.4 0"/>
<feBlend mode="normal" in2="BackgroundImageFix" result="effect1_dropShadow_1_1442"/>
<feBlend mode="normal" in="SourceGraphic" in2="effect1_dropShadow_1_1442" result="shape"/>
</filter>
</defs>
</svg>
