<svg width="1712" height="1016" viewBox="0 0 1712 1016" fill="none" xmlns="http://www.w3.org/2000/svg">
<g opacity="0.7">
<mask id="mask0_1_1247" style="mask-type:alpha" maskUnits="userSpaceOnUse" x="25" y="-71" width="1457" height="1082">
<rect x="25.4116" y="-70.517" width="1456" height="1081" fill="white"/>
</mask>
<g mask="url(#mask0_1_1247)">
<g filter="url(#filter0_f_1_1247)">
<path d="M59.1089 359.519L313.47 359.519C313.47 359.519 822.191 956.128 59.1089 1091.12L59.1089 359.519Z" fill="#EEF3FF"/>
</g>
<g filter="url(#filter1_f_1_1247)">
<path d="M1774.68 1035.62L297.883 1035.62C297.883 1035.62 1381.14 186.719 1624.48 547.835C1854.72 889.505 1774.68 1035.62 1774.68 1035.62Z" fill="#5280FF" fill-opacity="0.06"/>
</g>
<g filter="url(#filter2_f_1_1247)">
<path d="M928.919 665.588L1441.29 1176.03C1441.29 1176.03 1067.83 865.158 733.129 1155.69L928.919 665.588Z" fill="#00FFFF" fill-opacity="0.04"/>
</g>
<g filter="url(#filter3_f_1_1247)">
<path d="M351.501 471.836L-278.018 108.947C-278.018 108.947 164.694 314.356 411.384 -51.2985L351.501 471.836Z" fill="#00FFFF" fill-opacity="0.04"/>
</g>
<g filter="url(#filter4_f_1_1247)">
<path d="M38.2435 332.132L38.2435 -72.9252C38.2435 -72.9252 297.128 224.191 187 290.935C82.8024 354.084 38.2435 332.132 38.2435 332.132Z" fill="#5280FF" fill-opacity="0.08"/>
</g>
</g>
<g opacity="0.6">
<path d="M-70 1084.15C-28.1704 1038.67 141.33 798.747 445.898 798.747C826.608 798.747 1039.39 1357.79 1613.49 895.971" stroke="white" stroke-width="0.987317"/>
<path d="M-70 582.658C-28.1704 537.182 141.33 297.256 445.898 297.256C826.608 297.256 1039.39 856.298 1613.49 394.481" stroke="white" stroke-width="0.987317"/>
<path d="M-70 1067.97C-28.1704 1022.5 141.33 782.57 445.898 782.57C826.608 782.57 1039.39 1341.61 1613.49 879.794" stroke="white" stroke-width="0.987317"/>
<path d="M-70 1051.79C-28.1704 1006.32 141.33 766.393 445.898 766.393C826.608 766.393 1039.39 1325.43 1613.49 863.618" stroke="white" stroke-width="0.987317"/>
<path d="M-70 1035.62C-28.1704 990.141 141.33 750.216 445.898 750.216C826.608 750.216 1039.39 1309.26 1613.49 847.44" stroke="white" stroke-width="0.987317"/>
<path d="M-70 1019.44C-28.1704 973.963 141.33 734.038 445.898 734.038C826.608 734.038 1039.39 1293.08 1613.49 831.263" stroke="white" stroke-width="0.987317"/>
<path d="M-70 1003.26C-28.1704 957.786 141.33 717.861 445.898 717.861C826.608 717.861 1039.39 1276.9 1613.49 815.086" stroke="white" stroke-width="0.987317"/>
<path d="M-70 987.086C-28.1704 941.61 141.33 701.684 445.898 701.684C826.608 701.684 1039.39 1260.73 1613.49 798.909" stroke="white" stroke-width="0.987317"/>
<path d="M-70 970.909C-28.1704 925.433 141.33 685.507 445.898 685.507C826.608 685.507 1039.39 1244.55 1613.49 782.732" stroke="white" stroke-width="0.987317"/>
<path d="M-70 954.732C-28.1704 909.256 141.33 669.33 445.898 669.33C826.608 669.33 1039.39 1228.37 1613.49 766.555" stroke="white" stroke-width="0.987317"/>
<path d="M-70 938.554C-28.1704 893.078 141.33 653.153 445.898 653.153C826.608 653.153 1039.39 1212.19 1613.49 750.378" stroke="white" stroke-width="0.987317"/>
<path d="M-70 922.377C-28.1704 876.901 141.33 636.976 445.898 636.976C826.608 636.976 1039.39 1196.02 1613.49 734.201" stroke="white" stroke-width="0.987317"/>
<path d="M-70 906.2C-28.1704 860.724 141.33 620.799 445.898 620.799C826.608 620.799 1039.39 1179.84 1613.49 718.024" stroke="white" stroke-width="0.987317"/>
<path d="M-70 890.023C-28.1704 844.547 141.33 604.622 445.898 604.622C826.608 604.622 1039.39 1163.66 1613.49 701.846" stroke="white" stroke-width="0.987317"/>
<path d="M-70 873.846C-28.1704 828.37 141.33 588.444 445.898 588.444C826.608 588.444 1039.39 1147.49 1613.49 685.669" stroke="white" stroke-width="0.987317"/>
<path d="M-70 857.669C-28.1704 812.193 141.33 572.268 445.898 572.268C826.608 572.268 1039.39 1131.31 1613.49 669.492" stroke="white" stroke-width="0.987317"/>
<path d="M-70 841.492C-28.1704 796.016 141.33 556.091 445.898 556.091C826.608 556.091 1039.39 1115.13 1613.49 653.315" stroke="white" stroke-width="0.987317"/>
<path d="M-70 825.314C-28.1704 779.838 141.33 539.913 445.898 539.913C826.608 539.913 1039.39 1098.95 1613.49 637.138" stroke="white" stroke-width="0.987317"/>
<path d="M-70 809.137C-28.1704 763.661 141.33 523.736 445.898 523.736C826.608 523.736 1039.39 1082.78 1613.49 620.96" stroke="white" stroke-width="0.987317"/>
<path d="M-70 792.96C-28.1704 747.484 141.33 507.559 445.898 507.559C826.608 507.559 1039.39 1066.6 1613.49 604.783" stroke="white" stroke-width="0.987317"/>
<path d="M-70 776.783C-28.1704 731.307 141.33 491.382 445.898 491.382C826.608 491.382 1039.39 1050.42 1613.49 588.607" stroke="white" stroke-width="0.987317"/>
<path d="M-70 760.606C-28.1704 715.13 141.33 475.205 445.898 475.205C826.608 475.205 1039.39 1034.25 1613.49 572.429" stroke="white" stroke-width="0.987317"/>
<path d="M-70 744.428C-28.1704 698.952 141.33 459.027 445.898 459.027C826.608 459.027 1039.39 1018.07 1613.49 556.252" stroke="white" stroke-width="0.987317"/>
<path d="M-70 728.252C-28.1704 682.776 141.33 442.851 445.898 442.851C826.608 442.851 1039.39 1001.89 1613.49 540.075" stroke="white" stroke-width="0.987317"/>
<path d="M-70 712.075C-28.1704 666.598 141.33 426.673 445.898 426.673C826.608 426.673 1039.39 985.715 1613.49 523.898" stroke="white" stroke-width="0.987317"/>
<path d="M-70 695.897C-28.1704 650.421 141.33 410.496 445.898 410.496C826.608 410.496 1039.39 969.537 1613.49 507.721" stroke="white" stroke-width="0.987317"/>
<path d="M-70 679.72C-28.1704 634.244 141.33 394.319 445.898 394.319C826.608 394.319 1039.39 953.36 1613.49 491.544" stroke="white" stroke-width="0.987317"/>
<path d="M-70 663.544C-28.1704 618.068 141.33 378.142 445.898 378.142C826.608 378.142 1039.39 937.184 1613.49 475.367" stroke="white" stroke-width="0.987317"/>
<path d="M-70 647.366C-28.1704 601.89 141.33 361.965 445.898 361.965C826.608 361.965 1039.39 921.007 1613.49 459.19" stroke="white" stroke-width="0.987317"/>
<path d="M-70 631.189C-28.1704 585.713 141.33 345.788 445.898 345.788C826.608 345.788 1039.39 904.829 1613.49 443.012" stroke="white" stroke-width="0.987317"/>
<path d="M-70 615.012C-28.1704 569.536 141.33 329.61 445.898 329.61C826.608 329.61 1039.39 888.652 1613.49 426.835" stroke="white" stroke-width="0.987317"/>
<path d="M-70 598.835C-28.1704 553.359 141.33 313.434 445.898 313.434C826.608 313.434 1039.39 872.475 1613.49 410.658" stroke="white" stroke-width="0.987317"/>
</g>
<g opacity="0.8">
<path d="M28.5104 393.555C70.34 366.65 239.841 224.701 544.409 224.701C925.119 224.701 1137.9 555.451 1712 282.223" stroke="white" stroke-width="0.987317"/>
<path d="M28.5104 96.8543C70.34 69.9489 239.841 -72 544.409 -72C925.119 -72 1137.9 258.75 1712 -14.4782" stroke="white" stroke-width="0.987317"/>
<path d="M28.5104 383.984C70.34 357.079 239.841 215.13 544.409 215.13C925.119 215.13 1137.9 545.88 1712 272.652" stroke="white" stroke-width="0.987317"/>
<path d="M28.5104 374.413C70.34 347.508 239.841 205.559 544.409 205.559C925.119 205.559 1137.9 536.309 1712 263.081" stroke="white" stroke-width="0.987317"/>
<path d="M28.5104 364.842C70.34 337.937 239.841 195.988 544.409 195.988C925.119 195.988 1137.9 526.738 1712 253.51" stroke="white" stroke-width="0.987317"/>
<path d="M28.5104 355.271C70.34 328.366 239.841 186.417 544.409 186.417C925.119 186.417 1137.9 517.167 1712 243.939" stroke="white" stroke-width="0.987317"/>
<path d="M28.5104 345.7C70.34 318.795 239.841 176.846 544.409 176.846C925.119 176.846 1137.9 507.596 1712 234.368" stroke="white" stroke-width="0.987317"/>
<path d="M28.5104 336.129C70.34 309.224 239.841 167.275 544.409 167.275C925.119 167.275 1137.9 498.025 1712 224.797" stroke="white" stroke-width="0.987317"/>
<path d="M28.5104 326.558C70.34 299.653 239.841 157.704 544.409 157.704C925.119 157.704 1137.9 488.454 1712 215.226" stroke="white" stroke-width="0.987317"/>
<path d="M28.5104 316.987C70.34 290.082 239.841 148.133 544.409 148.133C925.119 148.133 1137.9 478.883 1712 205.655" stroke="white" stroke-width="0.987317"/>
<path d="M28.5104 307.416C70.34 280.511 239.841 138.562 544.409 138.562C925.119 138.562 1137.9 469.312 1712 196.084" stroke="white" stroke-width="0.987317"/>
<path d="M28.5104 297.845C70.34 270.94 239.841 128.991 544.409 128.991C925.119 128.991 1137.9 459.741 1712 186.513" stroke="white" stroke-width="0.987317"/>
<path d="M28.5104 288.274C70.34 261.369 239.841 119.42 544.409 119.42C925.119 119.42 1137.9 450.17 1712 176.942" stroke="white" stroke-width="0.987317"/>
<path d="M28.5104 278.703C70.34 251.798 239.841 109.849 544.409 109.849C925.119 109.849 1137.9 440.599 1712 167.371" stroke="white" stroke-width="0.987317"/>
<path d="M28.5104 269.132C70.34 242.227 239.841 100.278 544.409 100.278C925.119 100.278 1137.9 431.028 1712 157.8" stroke="white" stroke-width="0.987317"/>
<path d="M28.5104 259.561C70.34 232.656 239.841 90.707 544.409 90.707C925.119 90.707 1137.9 421.457 1712 148.229" stroke="white" stroke-width="0.987317"/>
<path d="M28.5104 249.99C70.34 223.085 239.841 81.1361 544.409 81.1361C925.119 81.1361 1137.9 411.886 1712 138.658" stroke="white" stroke-width="0.987317"/>
<path d="M28.5104 240.419C70.34 213.514 239.841 71.5649 544.409 71.5649C925.119 71.5649 1137.9 402.315 1712 129.087" stroke="white" stroke-width="0.987317"/>
<path d="M28.5104 230.848C70.34 203.943 239.841 61.9939 544.409 61.9939C925.119 61.9939 1137.9 392.744 1712 119.516" stroke="white" stroke-width="0.987317"/>
<path d="M28.5104 221.277C70.34 194.372 239.841 52.423 544.409 52.423C925.119 52.423 1137.9 383.173 1712 109.945" stroke="white" stroke-width="0.987317"/>
<path d="M28.5104 211.706C70.34 184.801 239.841 42.8521 544.409 42.8521C925.119 42.8521 1137.9 373.602 1712 100.374" stroke="white" stroke-width="0.987317"/>
<path d="M28.5104 202.135C70.34 175.23 239.841 33.281 544.409 33.281C925.119 33.281 1137.9 364.031 1712 90.8028" stroke="white" stroke-width="0.987317"/>
<path d="M28.5104 192.564C70.34 165.659 239.841 23.7097 544.409 23.7097C925.119 23.7097 1137.9 354.46 1712 81.2315" stroke="white" stroke-width="0.987317"/>
<path d="M28.5104 182.993C70.34 156.088 239.841 14.1392 544.409 14.1392C925.119 14.1392 1137.9 344.889 1712 71.6609" stroke="white" stroke-width="0.987317"/>
<path d="M28.5104 173.422C70.34 146.517 239.841 4.56799 544.409 4.56799C925.119 4.56799 1137.9 335.318 1712 62.0898" stroke="white" stroke-width="0.987317"/>
<path d="M28.5104 163.851C70.34 136.946 239.841 -5.00317 544.409 -5.00317C925.119 -5.00317 1137.9 325.747 1712 52.5186" stroke="white" stroke-width="0.987317"/>
<path d="M28.5104 154.28C70.34 127.375 239.841 -14.5742 544.409 -14.5742C925.119 -14.5742 1137.9 316.176 1712 42.9476" stroke="white" stroke-width="0.987317"/>
<path d="M28.5104 144.709C70.34 117.804 239.841 -24.1449 544.409 -24.1449C925.119 -24.1449 1137.9 306.605 1712 33.3769" stroke="white" stroke-width="0.987317"/>
<path d="M28.5104 135.138C70.34 108.233 239.841 -33.7161 544.409 -33.7161C925.119 -33.7161 1137.9 297.034 1712 23.8057" stroke="white" stroke-width="0.987317"/>
<path d="M28.5104 125.567C70.34 98.6618 239.841 -43.2871 544.409 -43.2871C925.119 -43.2871 1137.9 287.463 1712 14.2347" stroke="white" stroke-width="0.987317"/>
<path d="M28.5104 115.996C70.34 89.0906 239.841 -52.8583 544.409 -52.8583C925.119 -52.8583 1137.9 277.892 1712 4.6635" stroke="white" stroke-width="0.987317"/>
<path d="M28.5104 106.425C70.34 79.5199 239.841 -62.429 544.409 -62.429C925.119 -62.429 1137.9 268.321 1712 -4.90718" stroke="white" stroke-width="0.987317"/>
</g>
</g>
<defs>
<filter id="filter0_f_1_1247" x="-108.735" y="191.675" width="756.162" height="1067.29" filterUnits="userSpaceOnUse" color-interpolation-filters="sRGB">
<feFlood flood-opacity="0" result="BackgroundImageFix"/>
<feBlend mode="normal" in="SourceGraphic" in2="BackgroundImageFix" result="shape"/>
<feGaussianBlur stdDeviation="83.9219" result="effect1_foregroundBlur_1_1247"/>
</filter>
<filter id="filter1_f_1_1247" x="130.039" y="290.541" width="1825.95" height="912.92" filterUnits="userSpaceOnUse" color-interpolation-filters="sRGB">
<feFlood flood-opacity="0" result="BackgroundImageFix"/>
<feBlend mode="normal" in="SourceGraphic" in2="BackgroundImageFix" result="shape"/>
<feGaussianBlur stdDeviation="83.9219" result="effect1_foregroundBlur_1_1247"/>
</filter>
<filter id="filter2_f_1_1247" x="565.285" y="497.744" width="1043.85" height="846.131" filterUnits="userSpaceOnUse" color-interpolation-filters="sRGB">
<feFlood flood-opacity="0" result="BackgroundImageFix"/>
<feBlend mode="normal" in="SourceGraphic" in2="BackgroundImageFix" result="shape"/>
<feGaussianBlur stdDeviation="83.9219" result="effect1_foregroundBlur_1_1247"/>
</filter>
<filter id="filter3_f_1_1247" x="-445.861" y="-219.142" width="1025.09" height="858.822" filterUnits="userSpaceOnUse" color-interpolation-filters="sRGB">
<feFlood flood-opacity="0" result="BackgroundImageFix"/>
<feBlend mode="normal" in="SourceGraphic" in2="BackgroundImageFix" result="shape"/>
<feGaussianBlur stdDeviation="83.9219" result="effect1_foregroundBlur_1_1247"/>
</filter>
<filter id="filter4_f_1_1247" x="-129.6" y="-240.769" width="511.723" height="744.437" filterUnits="userSpaceOnUse" color-interpolation-filters="sRGB">
<feFlood flood-opacity="0" result="BackgroundImageFix"/>
<feBlend mode="normal" in="SourceGraphic" in2="BackgroundImageFix" result="shape"/>
<feGaussianBlur stdDeviation="83.9219" result="effect1_foregroundBlur_1_1247"/>
</filter>
</defs>
</svg>
