<svg width="40" height="40" viewBox="0 0 40 40" fill="none" xmlns="http://www.w3.org/2000/svg">
<rect width="40" height="40" rx="8" fill="#FFCC40"/>
<path fill-rule="evenodd" clip-rule="evenodd" d="M28.2531 15.4971C28.0063 12.9369 25.7962 12.0786 23.0058 11.8341L23.0057 8.28274L20.8435 8.28311L20.8436 11.7409C20.2759 11.7408 19.695 11.752 19.1179 11.7636L19.1182 8.28289L16.9577 8.28283L16.9569 11.8332C16.4889 11.8428 16.0292 11.8514 15.5811 11.8517L15.5808 11.8407L12.5993 11.8397L12.5999 14.1485C12.5999 14.1485 14.1962 14.118 14.1697 14.1474C15.0453 14.1477 15.3308 14.6559 15.4131 15.0947L15.4133 19.1404C15.4737 19.1408 15.5526 19.1433 15.6418 19.1555L15.414 19.1557L15.4129 24.8235C15.3745 25.0991 15.2125 25.5385 14.6008 25.5395C14.6284 25.564 13.0294 25.5391 13.0294 25.5391L12.6 28.1213L15.4137 28.1211C15.7314 28.1214 16.0461 28.1248 16.3572 28.1282L16.3573 28.1282C16.5588 28.1304 16.7589 28.1326 16.9574 28.1339L16.9585 31.7263L19.1179 31.7267L19.1184 28.1727C19.7107 28.1851 20.2845 28.1898 20.8446 28.1893L20.8437 31.7267L23.0054 31.7265L23.0061 28.1411C26.6403 27.9325 29.1845 27.0168 29.4994 23.6049C29.7544 20.8568 28.4623 19.6305 26.3991 19.1345C27.6522 18.4951 28.4357 17.3707 28.2525 15.4972L28.2531 15.4971ZM25.2279 23.1773C25.2285 25.641 21.3575 25.5867 19.588 25.5619C19.4295 25.5596 19.2879 25.5577 19.1674 25.5577L19.168 20.7988C19.3153 20.7988 19.4941 20.7946 19.6968 20.7898C21.5104 20.747 25.2271 20.6593 25.2285 23.1772L25.2279 23.1773ZM19.5237 18.6245C21.0011 18.6487 24.2214 18.7014 24.222 16.4631C24.2223 14.1732 21.1242 14.2555 19.6111 14.2957C19.441 14.3002 19.2909 14.3042 19.1676 14.3042L19.1674 18.6204C19.2693 18.6204 19.3893 18.6223 19.5237 18.6245Z" fill="#F4FFFC"/>
</svg>
