<svg width="217" height="269" viewBox="0 0 217 269" fill="none" xmlns="http://www.w3.org/2000/svg">
<g clip-path="url(#clip0_1_1522)">
<rect x="0.5" width="216" height="269" rx="16" fill="#00DEA3"/>
<g filter="url(#filter0_d_1_1522)">
<circle cx="106" cy="63" r="36" fill="white"/>
</g>
<path opacity="0.4" d="M120.144 60.8275C120.144 68.9775 114.228 76.6108 106.144 78.8441C105.594 78.9941 104.994 78.9941 104.444 78.8441C96.3611 76.6108 90.4445 68.9775 90.4445 60.8275V53.5108C90.4445 52.1442 91.4778 50.5942 92.7611 50.0775L102.044 46.2775C104.128 45.4275 106.478 45.4275 108.561 46.2775L117.844 50.0775C119.111 50.5942 120.161 52.1442 120.161 53.5108L120.144 60.8275Z" fill="#00DEA3"/>
<path d="M109.461 59.7942C109.461 57.4942 107.594 55.6275 105.294 55.6275C102.994 55.6275 101.128 57.4942 101.128 59.7942C101.128 61.6609 102.361 63.2109 104.044 63.7442V68.1275C104.044 68.8109 104.611 69.3775 105.294 69.3775C105.978 69.3775 106.544 68.8109 106.544 68.1275V63.7442C108.228 63.2109 109.461 61.6609 109.461 59.7942Z" fill="#00DEA3"/>
<path d="M42.25 124C42.1719 123.674 41.9961 123.499 41.7227 123.473H40.6875V118.785L41.3125 118.219L45.043 124.02L48.7734 124C48.6953 123.674 48.5195 123.499 48.2461 123.473H48.0703L43.3047 116.402L46.2734 113.727C46.8594 113.193 47.2826 112.893 47.543 112.828C47.6341 112.815 47.7188 112.809 47.7969 112.809C48.1094 112.809 48.2786 112.698 48.3047 112.477C48.3177 112.411 48.3242 112.346 48.3242 112.281H44.7109V112.809H46.2734L40.6875 117.848V112.809H42.25V112.281H36.3906V112.809H37.9531V123.473H36.3906V124H42.25ZM54.0544 115.816C54.8877 115.842 55.3109 116.552 55.3239 117.945C55.3239 118.557 55.1416 118.935 54.777 119.078C54.5166 119.169 54.126 119.202 53.6052 119.176L52.3552 119.117C52.4463 116.956 53.0127 115.855 54.0544 115.816ZM57.7067 121.988L57.238 121.832C56.8734 122.626 56.3005 123.167 55.5192 123.453C55.2067 123.57 54.8877 123.629 54.5622 123.629C53.5205 123.629 52.8499 122.965 52.5505 121.637C52.4333 121.09 52.3682 120.439 52.3552 119.684L54.152 119.742C56.2484 119.807 57.4658 119.475 57.8044 118.746C57.8825 118.564 57.9216 118.362 57.9216 118.141C57.9216 117.034 57.3552 116.227 56.2223 115.719C55.5843 115.445 54.8617 115.309 54.0544 115.309C52.583 115.309 51.4372 115.81 50.6169 116.812C49.9919 117.594 49.6794 118.564 49.6794 119.723C49.6794 121.611 50.389 122.926 51.8083 123.668C52.4854 124.02 53.2536 124.195 54.113 124.195C55.6364 124.195 56.7302 123.661 57.3942 122.594C57.5244 122.398 57.6286 122.197 57.7067 121.988ZM63.6712 115.816C64.5046 115.842 64.9278 116.552 64.9408 117.945C64.9408 118.557 64.7585 118.935 64.3939 119.078C64.1335 119.169 63.7429 119.202 63.222 119.176L61.972 119.117C62.0632 116.956 62.6296 115.855 63.6712 115.816ZM67.3236 121.988L66.8548 121.832C66.4903 122.626 65.9173 123.167 65.1361 123.453C64.8236 123.57 64.5046 123.629 64.1791 123.629C63.1374 123.629 62.4668 122.965 62.1673 121.637C62.0502 121.09 61.9851 120.439 61.972 119.684L63.7689 119.742C65.8653 119.807 67.0827 119.475 67.4212 118.746C67.4994 118.564 67.5384 118.362 67.5384 118.141C67.5384 117.034 66.972 116.227 65.8392 115.719C65.2012 115.445 64.4785 115.309 63.6712 115.309C62.1999 115.309 61.0541 115.81 60.2337 116.812C59.6087 117.594 59.2962 118.564 59.2962 119.723C59.2962 121.611 60.0059 122.926 61.4252 123.668C62.1022 124.02 62.8705 124.195 63.7298 124.195C65.2533 124.195 66.347 123.661 67.0111 122.594C67.1413 122.398 67.2455 122.197 67.3236 121.988ZM72.3116 127.203V123.297C72.8194 123.87 73.5941 124.169 74.6358 124.195C75.9248 124.195 76.96 123.701 77.7412 122.711C78.3923 121.852 78.7178 120.784 78.7178 119.508C78.7178 117.854 78.223 116.656 77.2334 115.914C76.6996 115.51 76.0876 115.309 75.3975 115.309C74.3558 115.309 73.5095 115.693 72.8584 116.461C72.598 116.773 72.4027 117.112 72.2725 117.477L72.1748 115.602H68.7178V116.109H69.8311V126.188C69.8311 126.747 69.6162 127.073 69.1866 127.164C69.0433 127.19 68.8871 127.203 68.7178 127.203V127.711H73.7959C73.7959 127.411 73.7113 127.249 73.542 127.223C73.4639 127.21 73.3858 127.203 73.3077 127.203H72.3116ZM74.3623 116.246C75.4821 116.272 76.042 117.457 76.042 119.801C76.029 122.366 75.4235 123.655 74.2256 123.668C73.5225 123.668 72.9952 123.238 72.6436 122.379C72.4092 121.78 72.292 121.044 72.292 120.172C72.292 118.544 72.6436 117.385 73.3467 116.695C73.6592 116.396 73.9978 116.246 74.3623 116.246ZM86.2523 127.125C86.018 127.125 85.8292 126.949 85.6859 126.598C85.5036 126.142 85.3409 125.855 85.1977 125.738C85.0284 125.621 84.8331 125.562 84.6117 125.562C84.143 125.562 83.8435 125.764 83.7133 126.168C83.6872 126.272 83.6742 126.37 83.6742 126.461C83.6742 126.891 83.9346 127.242 84.4555 127.516C84.8201 127.711 85.2432 127.809 85.725 127.809C86.8187 127.809 87.7237 127.177 88.4398 125.914C88.7133 125.458 88.9737 124.905 89.2211 124.254L92.1508 116.656C92.3721 116.305 92.587 116.116 92.7953 116.09C93.0818 116.09 93.238 115.992 93.2641 115.797C93.2771 115.732 93.2836 115.667 93.2836 115.602H90.2562V116.09H91.7211L89.5922 121.539L87.2289 116.09H88.4203V115.602H83.8305V116.09H84.6508L88.4594 124.41C87.8344 125.96 87.2354 126.839 86.6625 127.047C86.5193 127.099 86.3826 127.125 86.2523 127.125ZM96.8653 119.762C96.8653 117.939 97.0867 116.773 97.5294 116.266C97.8028 115.966 98.1869 115.816 98.6817 115.816C99.5151 115.816 100.049 116.24 100.283 117.086C100.44 117.633 100.518 118.499 100.518 119.684C100.518 121.585 100.27 122.783 99.7755 123.277C99.489 123.551 99.1179 123.688 98.6622 123.688C97.8549 123.688 97.3341 123.271 97.0997 122.438C96.9434 121.878 96.8653 120.986 96.8653 119.762ZM98.7794 115.309C97.1778 115.309 95.9473 115.855 95.088 116.949C94.489 117.73 94.1895 118.642 94.1895 119.684C94.1895 121.155 94.6973 122.32 95.713 123.18C96.5203 123.857 97.4838 124.195 98.6036 124.195C100.14 124.195 101.344 123.642 102.217 122.535C102.868 121.702 103.193 120.738 103.193 119.645C103.193 118.186 102.679 117.047 101.65 116.227C100.856 115.615 99.8992 115.309 98.7794 115.309ZM114.217 123.492H113.552V115.602H110.115V116.109H111.072L111.052 121.031C110.961 122.047 110.59 122.717 109.939 123.043C109.744 123.134 109.549 123.18 109.353 123.18C108.611 123.18 108.175 122.743 108.045 121.871C108.019 121.702 108.006 121.526 108.006 121.344V115.602H104.392V116.109H105.525V121.012C105.551 123.121 106.482 124.182 108.318 124.195C109.49 124.195 110.382 123.674 110.994 122.633C111.033 122.555 111.072 122.477 111.111 122.398L111.209 124H114.685C114.685 123.714 114.607 123.551 114.451 123.512C114.386 123.499 114.308 123.492 114.217 123.492ZM123.353 123.648C124.225 123.648 124.726 123.336 124.857 122.711C124.87 122.62 124.876 122.535 124.876 122.457C124.876 121.793 124.459 121.24 123.626 120.797C123.444 120.693 123.151 120.556 122.747 120.387C121.771 119.957 121.126 119.56 120.814 119.195C120.475 118.805 120.306 118.342 120.306 117.809C120.306 116.702 120.911 115.953 122.122 115.562C122.63 115.393 123.196 115.309 123.821 115.309C124.837 115.309 125.631 115.491 126.204 115.855C126.204 115.465 126.321 115.25 126.556 115.211C126.608 115.198 126.66 115.191 126.712 115.191V117.633H126.087C126.035 116.448 125.39 115.849 124.153 115.836C123.32 115.836 122.806 116.109 122.61 116.656C122.571 116.786 122.552 116.917 122.552 117.047C122.552 117.607 122.942 118.082 123.724 118.473C123.88 118.564 124.14 118.688 124.505 118.844C125.521 119.299 126.198 119.716 126.536 120.094C126.927 120.536 127.122 121.064 127.122 121.676C127.122 122.809 126.536 123.57 125.364 123.961C124.883 124.117 124.342 124.195 123.743 124.195C122.597 124.195 121.634 123.993 120.853 123.59C120.853 123.928 120.768 124.124 120.599 124.176C120.521 124.189 120.429 124.195 120.325 124.195V121.227H120.989C121.015 122.828 121.803 123.635 123.353 123.648ZM135.606 124.195C136.557 124.195 137.149 123.85 137.384 123.16C137.462 122.9 137.52 122.568 137.559 122.164L137.052 122.145C136.973 123.043 136.746 123.499 136.368 123.512C136.082 123.486 135.938 123.16 135.938 122.535V118.453C135.938 116.826 135.183 115.823 133.673 115.445C133.282 115.354 132.859 115.309 132.403 115.309C130.632 115.309 129.519 115.693 129.063 116.461C128.946 116.656 128.887 116.865 128.887 117.086C128.887 117.594 129.128 117.913 129.61 118.043C129.727 118.082 129.851 118.102 129.981 118.102C130.541 118.102 130.919 117.828 131.114 117.281C131.14 117.203 131.179 117.073 131.231 116.891C131.374 116.37 131.557 116.044 131.778 115.914C131.921 115.849 132.084 115.816 132.266 115.816C132.878 115.816 133.249 116.188 133.38 116.93C133.432 117.203 133.458 117.529 133.458 117.906V119.176C130.111 119.241 128.432 120.126 128.419 121.832C128.419 122.991 128.927 123.733 129.942 124.059C130.242 124.15 130.574 124.195 130.938 124.195C132.045 124.195 132.859 123.779 133.38 122.945C133.484 122.776 133.568 122.6 133.634 122.418C133.907 123.538 134.565 124.13 135.606 124.195ZM131.954 123.355C131.303 123.329 130.971 122.75 130.958 121.617C130.958 120.758 131.309 120.198 132.012 119.938C132.39 119.82 132.872 119.749 133.458 119.723V121.617C133.21 122.529 132.813 123.089 132.266 123.297C132.149 123.336 132.045 123.355 131.954 123.355ZM143.817 123.492H142.43V116.129H144.637V115.602H142.43V115.504C142.43 113.538 142.58 112.366 142.879 111.988C143.036 111.806 143.237 111.715 143.485 111.715C143.81 111.715 144.077 111.962 144.286 112.457C144.546 113.056 144.715 113.408 144.793 113.512C145.015 113.759 145.275 113.889 145.575 113.902C146.109 113.902 146.46 113.694 146.629 113.277C146.668 113.173 146.688 113.062 146.688 112.945C146.688 112.372 146.349 111.917 145.672 111.578C145.178 111.331 144.579 111.207 143.875 111.207C142.352 111.207 141.252 111.754 140.575 112.848C140.158 113.525 139.95 114.358 139.95 115.348V115.602H138.368V116.129H139.95V122.477C139.924 123.154 139.429 123.492 138.465 123.492V124H144.286C144.286 123.701 144.201 123.538 144.032 123.512C143.967 123.499 143.895 123.492 143.817 123.492ZM150.016 115.816C150.849 115.842 151.272 116.552 151.285 117.945C151.285 118.557 151.103 118.935 150.738 119.078C150.478 119.169 150.087 119.202 149.567 119.176L148.317 119.117C148.408 116.956 148.974 115.855 150.016 115.816ZM153.668 121.988L153.199 121.832C152.835 122.626 152.262 123.167 151.481 123.453C151.168 123.57 150.849 123.629 150.524 123.629C149.482 123.629 148.811 122.965 148.512 121.637C148.395 121.09 148.33 120.439 148.317 119.684L150.113 119.742C152.21 119.807 153.427 119.475 153.766 118.746C153.844 118.564 153.883 118.362 153.883 118.141C153.883 117.034 153.317 116.227 152.184 115.719C151.546 115.445 150.823 115.309 150.016 115.309C148.544 115.309 147.399 115.81 146.578 116.812C145.953 117.594 145.641 118.564 145.641 119.723C145.641 121.611 146.35 122.926 147.77 123.668C148.447 124.02 149.215 124.195 150.074 124.195C151.598 124.195 152.692 123.661 153.356 122.594C153.486 122.398 153.59 122.197 153.668 121.988ZM157.289 120.25C157.289 118.766 157.523 117.19 157.992 115.523C158.265 114.586 158.402 113.902 158.402 113.473C158.376 112.561 157.901 112.099 156.976 112.086C156.052 112.164 155.564 112.633 155.512 113.492C155.512 113.909 155.668 114.664 155.98 115.758C156.41 117.294 156.625 118.792 156.625 120.25H157.289ZM158.363 122.73C158.363 122.184 158.116 121.773 157.621 121.5C157.413 121.396 157.198 121.344 156.976 121.344C156.43 121.344 156.026 121.591 155.765 122.086C155.661 122.294 155.609 122.509 155.609 122.73C155.609 123.29 155.857 123.694 156.351 123.941C156.547 124.046 156.755 124.098 156.976 124.098C157.536 124.098 157.946 123.863 158.207 123.395C158.311 123.186 158.363 122.965 158.363 122.73Z" fill="#FAFCFE"/>
<path d="M19.9246 153.273H20.8621V157.387C20.8777 159.199 21.8191 160.109 23.6863 160.117C25.0066 160.117 25.823 159.59 26.1355 158.535C26.2371 158.176 26.2879 157.75 26.2879 157.258V153.273H27.2254V152.969H24.9285V153.273H25.866V157.328C25.8582 158.953 25.2137 159.77 23.9324 159.777C23.0418 159.777 22.4832 159.355 22.2566 158.512C22.1707 158.176 22.1277 157.773 22.1277 157.305V153.273H23.0535V152.969H19.9246V153.273ZM29.2354 161.934V159.531C29.6026 159.906 30.0869 160.102 30.6885 160.117C31.4151 160.117 32.0127 159.844 32.4815 159.297C32.9112 158.789 33.126 158.145 33.126 157.363C33.126 156.434 32.8604 155.738 32.3291 155.277C32.001 154.996 31.6026 154.855 31.1338 154.855C30.4385 154.855 29.8994 155.117 29.5166 155.641C29.3916 155.812 29.294 156.004 29.2237 156.215L29.1651 154.996H27.3252V155.289H28.1104V161.266C28.1104 161.609 28.0049 161.816 27.794 161.887C27.6846 161.918 27.5283 161.934 27.3252 161.934V162.227H30.2666C30.2666 162.055 30.2158 161.961 30.1143 161.945C30.0752 161.938 30.0283 161.934 29.9737 161.934H29.2354ZM30.6533 155.359C31.3408 155.359 31.7393 155.875 31.8487 156.906C31.8721 157.094 31.8838 157.293 31.8838 157.504C31.8838 158.723 31.583 159.461 30.9815 159.719C30.8408 159.781 30.6924 159.812 30.5362 159.812C30.0205 159.812 29.6494 159.527 29.4229 158.957C29.2901 158.613 29.2237 158.203 29.2237 157.727C29.2237 156.742 29.4619 156.043 29.9385 155.629C30.1573 155.449 30.3955 155.359 30.6533 155.359ZM37.7376 160H39.5891C39.5891 159.82 39.5383 159.723 39.4368 159.707C39.3977 159.699 39.3548 159.695 39.3079 159.695H38.7337L38.7219 152.383H36.4954V152.676H37.5969V155.43C37.2141 155.039 36.7141 154.844 36.0969 154.844C35.2844 154.844 34.6516 155.184 34.1985 155.863C33.8782 156.363 33.718 156.945 33.718 157.609C33.718 158.562 34.0266 159.27 34.6438 159.73C34.9876 159.988 35.3743 160.117 35.804 160.117C36.6165 160.117 37.2024 159.723 37.5618 158.934C37.5774 158.895 37.593 158.855 37.6087 158.816L37.7376 160ZM34.9602 157.469C34.9602 156.383 35.2258 155.676 35.7571 155.348C35.9368 155.238 36.1321 155.184 36.343 155.184C36.8977 155.184 37.2766 155.516 37.4798 156.18C37.5735 156.484 37.6204 156.84 37.6204 157.246C37.6204 158.262 37.3821 158.969 36.9055 159.367C36.7024 159.539 36.4719 159.625 36.2141 159.625C35.636 159.625 35.2532 159.242 35.0657 158.477C34.9954 158.18 34.9602 157.844 34.9602 157.469ZM44.1538 160.117C44.7007 160.117 45.0366 159.871 45.1616 159.379C45.2007 159.238 45.2241 159.078 45.2319 158.898L44.9273 158.887C44.8726 159.441 44.7241 159.723 44.4819 159.73C44.2944 159.715 44.1968 159.516 44.189 159.133V156.672C44.1733 155.469 43.5132 154.863 42.2085 154.855C41.2632 154.855 40.646 155.066 40.3569 155.488C40.271 155.621 40.228 155.754 40.228 155.887C40.228 156.137 40.3452 156.297 40.5796 156.367C40.6421 156.383 40.7046 156.391 40.7671 156.391C41.0093 156.391 41.1773 156.262 41.271 156.004C41.2866 155.965 41.3062 155.906 41.3296 155.828C41.4312 155.516 41.5562 155.316 41.7046 155.23C41.814 155.176 41.9468 155.148 42.103 155.148C42.7358 155.164 43.0562 155.574 43.064 156.379V157.129C41.189 157.152 40.1538 157.578 39.9585 158.406C39.9351 158.516 39.9233 158.629 39.9233 158.746C39.9233 159.371 40.1929 159.789 40.7319 160C40.9351 160.078 41.1577 160.117 41.3999 160.117C41.9937 160.117 42.4702 159.914 42.8296 159.508C42.9468 159.367 43.0366 159.219 43.0991 159.062C43.2163 159.758 43.5679 160.109 44.1538 160.117ZM41.8804 159.637C41.4507 159.637 41.1968 159.383 41.1187 158.875C41.103 158.781 41.0952 158.68 41.0952 158.57C41.0952 158.039 41.3765 157.703 41.939 157.562C42.228 157.492 42.603 157.453 43.064 157.445V158.465C42.9312 159.012 42.6577 159.375 42.2437 159.555C42.1187 159.609 41.9976 159.637 41.8804 159.637ZM45.2615 155.312H46.0818V158.465C46.0818 159.488 46.5076 160.039 47.3591 160.117C47.4294 160.125 47.4958 160.129 47.5583 160.129C48.2224 160.129 48.6638 159.801 48.8826 159.145C48.9216 159.027 48.9529 158.906 48.9763 158.781L48.6599 158.723C48.488 159.418 48.2068 159.77 47.8162 159.777C47.4177 159.762 47.2146 159.461 47.2068 158.875V155.312H48.906V155.02H47.2068V153.66L46.0818 153.906V155.02H45.2615V155.312ZM51.7363 155.148C52.2363 155.148 52.5527 155.402 52.6855 155.91C52.7246 156.059 52.7441 156.211 52.7441 156.367C52.7441 156.75 52.584 156.984 52.2637 157.07C52.084 157.117 51.8301 157.133 51.5019 157.117L50.459 157.094C50.4902 156.094 50.7793 155.473 51.3262 155.23C51.4512 155.176 51.5879 155.148 51.7363 155.148ZM53.834 158.84L53.5527 158.746C53.2949 159.285 52.8965 159.617 52.3574 159.742C52.2324 159.773 52.1074 159.789 51.9824 159.789C51.0058 159.789 50.498 159.008 50.459 157.445C50.459 157.438 50.459 157.43 50.459 157.422L51.7363 157.445C52.8066 157.469 53.4746 157.34 53.7402 157.059C53.8652 156.91 53.9277 156.723 53.9277 156.496C53.9277 155.91 53.6348 155.465 53.0488 155.16C52.6582 154.957 52.2168 154.855 51.7246 154.855C50.7949 154.855 50.1035 155.211 49.6504 155.922C49.3613 156.375 49.2168 156.902 49.2168 157.504C49.2168 158.543 49.5957 159.289 50.3535 159.742C50.7676 159.992 51.2363 160.117 51.7598 160.117C52.6426 160.117 53.2793 159.801 53.6699 159.168C53.7324 159.059 53.7871 158.949 53.834 158.84ZM57.4321 161.863C57.2993 161.863 57.1977 161.766 57.1274 161.57C57.0337 161.312 56.9438 161.156 56.8579 161.102C56.7798 161.047 56.686 161.02 56.5766 161.02C56.3188 161.02 56.1587 161.137 56.0962 161.371C56.0883 161.41 56.0844 161.449 56.0844 161.488C56.0844 161.762 56.2485 161.977 56.5766 162.133C56.7563 162.211 56.9555 162.25 57.1743 162.25C57.8071 162.25 58.3462 161.875 58.7915 161.125C58.9712 160.828 59.143 160.473 59.3071 160.059L61.0532 155.664C61.1313 155.453 61.2212 155.336 61.3227 155.312C61.3696 155.305 61.4204 155.301 61.4751 155.301C61.6391 155.301 61.7329 155.25 61.7563 155.148C61.7641 155.109 61.768 155.059 61.768 154.996H59.9633V155.301H60.8305L59.4243 158.84L57.8891 155.301H58.6508V154.996H56.1782V155.301H56.7173L58.8969 160.105C58.4907 161.09 58.1001 161.656 57.7251 161.805C57.6313 161.844 57.5337 161.863 57.4321 161.863ZM63.2155 157.48C63.2937 155.988 63.7468 155.211 64.5749 155.148C65.3171 155.148 65.7546 155.633 65.8874 156.602C65.9187 156.852 65.9343 157.129 65.9343 157.434C65.9187 159.012 65.4694 159.809 64.5866 159.824C63.8054 159.824 63.3601 159.277 63.2507 158.184C63.2273 157.973 63.2155 157.738 63.2155 157.48ZM64.6101 154.855C63.7741 154.855 63.1023 155.141 62.5944 155.711C62.1804 156.18 61.9734 156.754 61.9734 157.434C61.9734 158.379 62.3093 159.102 62.9812 159.602C63.4343 159.945 63.9577 160.117 64.5515 160.117C65.364 160.117 66.0241 159.828 66.5319 159.25C66.9616 158.758 67.1765 158.16 67.1765 157.457C67.1765 156.512 66.8327 155.797 66.1452 155.312C65.6999 155.008 65.1882 154.855 64.6101 154.855ZM73.4052 159.707H72.9013V154.996H70.9677V155.289H71.7646V157.996C71.7412 158.66 71.5068 159.129 71.0615 159.402C70.8818 159.512 70.6982 159.566 70.5107 159.566C69.9482 159.566 69.6201 159.266 69.5263 158.664C69.5107 158.555 69.5029 158.445 69.5029 158.336V154.996H67.5693V155.289H68.3779V158.148C68.3857 159.453 68.9443 160.109 70.0537 160.117C70.663 160.117 71.1513 159.867 71.5185 159.367C71.6279 159.219 71.7177 159.062 71.788 158.898L71.8701 160H73.6982C73.6982 159.828 73.6474 159.734 73.5458 159.719C73.5068 159.711 73.4599 159.707 73.4052 159.707ZM76.8332 159.707H75.9777V157.445C75.9777 156.633 76.1848 156.043 76.5988 155.676C76.7238 155.566 76.8371 155.508 76.9387 155.5C77.048 155.5 77.1574 155.594 77.2668 155.781C77.3996 156.016 77.5324 156.156 77.6652 156.203C77.7199 156.219 77.7785 156.227 77.841 156.227C78.1144 156.227 78.298 156.098 78.3918 155.84C78.4152 155.77 78.4269 155.699 78.4269 155.629C78.4269 155.262 78.2433 155.031 77.8762 154.938C77.7902 154.922 77.7043 154.914 77.6183 154.914C77.1496 154.914 76.7277 155.109 76.3527 155.5C76.1808 155.688 76.048 155.898 75.9543 156.133L75.8957 154.996H74.0558V155.289H74.8527V159.039C74.8527 159.391 74.7394 159.598 74.5129 159.66C74.4113 159.691 74.259 159.707 74.0558 159.707V160H77.1262C77.1262 159.828 77.0754 159.734 76.9738 159.719C76.9348 159.711 76.8879 159.707 76.8332 159.707ZM82.5407 159.801C83.0719 159.801 83.4118 159.633 83.5602 159.297C83.6071 159.195 83.6305 159.09 83.6305 158.98C83.6305 158.629 83.3844 158.328 82.8923 158.078C82.7907 158.023 82.6227 157.945 82.3884 157.844C81.7712 157.578 81.361 157.332 81.1579 157.105C80.9391 156.855 80.8298 156.562 80.8298 156.227C80.8298 155.641 81.1501 155.234 81.7907 155.008C82.0798 154.906 82.3962 154.855 82.7399 154.855C83.3024 154.855 83.7634 154.965 84.1227 155.184C84.1227 154.957 84.1813 154.828 84.2985 154.797C84.3376 154.789 84.3805 154.785 84.4274 154.785V156.25H84.0993C84.068 155.531 83.6735 155.168 82.9157 155.16C82.3688 155.16 82.029 155.328 81.8962 155.664C81.8649 155.75 81.8493 155.84 81.8493 155.934C81.8493 156.27 82.0876 156.559 82.5641 156.801C82.6657 156.848 82.8298 156.918 83.0563 157.012C83.6813 157.277 84.0954 157.523 84.2985 157.75C84.5329 158.016 84.6501 158.324 84.6501 158.676C84.6501 159.316 84.3141 159.75 83.6423 159.977C83.3688 160.07 83.0641 160.117 82.7282 160.117C82.111 160.109 81.5837 159.977 81.1462 159.719C81.1462 159.922 81.0954 160.039 80.9938 160.07C80.9469 160.078 80.8923 160.082 80.8298 160.082V158.301H81.193C81.2087 159.293 81.6579 159.793 82.5407 159.801ZM87.7733 155.148C88.2733 155.148 88.5898 155.402 88.7226 155.91C88.7616 156.059 88.7812 156.211 88.7812 156.367C88.7812 156.75 88.621 156.984 88.3007 157.07C88.121 157.117 87.8671 157.133 87.539 157.117L86.496 157.094C86.5273 156.094 86.8163 155.473 87.3632 155.23C87.4882 155.176 87.6249 155.148 87.7733 155.148ZM89.871 158.84L89.5898 158.746C89.3319 159.285 88.9335 159.617 88.3944 159.742C88.2694 159.773 88.1444 159.789 88.0194 159.789C87.0429 159.789 86.5351 159.008 86.496 157.445C86.496 157.438 86.496 157.43 86.496 157.422L87.7733 157.445C88.8437 157.469 89.5116 157.34 89.7773 157.059C89.9023 156.91 89.9648 156.723 89.9648 156.496C89.9648 155.91 89.6718 155.465 89.0858 155.16C88.6952 154.957 88.2538 154.855 87.7616 154.855C86.8319 154.855 86.1405 155.211 85.6874 155.922C85.3983 156.375 85.2538 156.902 85.2538 157.504C85.2538 158.543 85.6327 159.289 86.3905 159.742C86.8046 159.992 87.2733 160.117 87.7968 160.117C88.6796 160.117 89.3163 159.801 89.7069 159.168C89.7694 159.059 89.8241 158.949 89.871 158.84ZM90.5099 157.527C90.5099 158.551 90.8888 159.289 91.6466 159.742C92.0685 159.992 92.549 160.117 93.088 160.117C93.9005 160.117 94.5177 159.852 94.9396 159.32C95.0568 159.172 95.1505 159.012 95.2208 158.84L94.9162 158.746C94.6583 159.309 94.2287 159.645 93.6271 159.754C93.5021 159.777 93.3771 159.789 93.2521 159.789C92.588 159.789 92.1388 159.414 91.9044 158.664C91.8029 158.328 91.7521 157.934 91.7521 157.48C91.7599 155.934 92.213 155.156 93.1115 155.148C93.5021 155.148 93.7404 155.316 93.8263 155.652C93.8419 155.707 93.8576 155.801 93.8732 155.934C93.9279 156.27 94.0177 156.48 94.1427 156.566C94.2365 156.621 94.3498 156.652 94.4826 156.66C94.8185 156.668 95.0177 156.535 95.0802 156.262C95.0958 156.207 95.1037 156.156 95.1037 156.109C95.1037 155.742 94.8732 155.43 94.4123 155.172C94.0294 154.961 93.588 154.855 93.088 154.855C92.1427 154.855 91.4357 155.207 90.9669 155.91C90.6623 156.363 90.5099 156.902 90.5099 157.527ZM101.086 159.707H100.582V154.996H98.6488V155.289H99.4457V157.996C99.4223 158.66 99.1879 159.129 98.7426 159.402C98.5629 159.512 98.3793 159.566 98.1918 159.566C97.6293 159.566 97.3012 159.266 97.2074 158.664C97.1918 158.555 97.184 158.445 97.184 158.336V154.996H95.2504V155.289H96.059V158.148C96.0668 159.453 96.6254 160.109 97.7348 160.117C98.3441 160.117 98.8324 159.867 99.1996 159.367C99.309 159.219 99.3988 159.062 99.4691 158.898L99.5512 160H101.379C101.379 159.828 101.329 159.734 101.227 159.719C101.188 159.711 101.141 159.707 101.086 159.707ZM104.514 159.707H103.659V157.445C103.659 156.633 103.866 156.043 104.28 155.676C104.405 155.566 104.518 155.508 104.62 155.5C104.729 155.5 104.839 155.594 104.948 155.781C105.081 156.016 105.214 156.156 105.346 156.203C105.401 156.219 105.46 156.227 105.522 156.227C105.796 156.227 105.979 156.098 106.073 155.84C106.096 155.77 106.108 155.699 106.108 155.629C106.108 155.262 105.924 155.031 105.557 154.938C105.471 154.922 105.385 154.914 105.299 154.914C104.831 154.914 104.409 155.109 104.034 155.5C103.862 155.688 103.729 155.898 103.635 156.133L103.577 154.996H101.737V155.289H102.534V159.039C102.534 159.391 102.421 159.598 102.194 159.66C102.092 159.691 101.94 159.707 101.737 159.707V160H104.807C104.807 159.828 104.756 159.734 104.655 159.719C104.616 159.711 104.569 159.707 104.514 159.707ZM108.739 159.707H108.212V154.996H106.255V155.289H107.087V159.039C107.087 159.391 106.962 159.602 106.712 159.672C106.602 159.695 106.45 159.707 106.255 159.707V160H109.032C109.032 159.828 108.981 159.734 108.88 159.719C108.841 159.711 108.794 159.707 108.739 159.707ZM108.341 153.355C108.341 153.059 108.208 152.84 107.942 152.699C107.833 152.645 107.72 152.617 107.602 152.617C107.306 152.617 107.091 152.75 106.958 153.016C106.903 153.125 106.876 153.238 106.876 153.355C106.876 153.668 107.013 153.887 107.286 154.012C107.388 154.059 107.493 154.082 107.602 154.082C107.915 154.082 108.138 153.949 108.27 153.684C108.317 153.582 108.341 153.473 108.341 153.355ZM109.296 155.312H110.116V158.465C110.116 159.488 110.542 160.039 111.394 160.117C111.464 160.125 111.53 160.129 111.593 160.129C112.257 160.129 112.698 159.801 112.917 159.145C112.956 159.027 112.987 158.906 113.011 158.781L112.694 158.723C112.523 159.418 112.241 159.77 111.851 159.777C111.452 159.762 111.249 159.461 111.241 158.875V155.312H112.941V155.02H111.241V153.66L110.116 153.906V155.02H109.296V155.312ZM114.165 161.863C114.033 161.863 113.931 161.766 113.861 161.57C113.767 161.312 113.677 161.156 113.591 161.102C113.513 161.047 113.419 161.02 113.31 161.02C113.052 161.02 112.892 161.137 112.829 161.371C112.822 161.41 112.818 161.449 112.818 161.488C112.818 161.762 112.982 161.977 113.31 162.133C113.49 162.211 113.689 162.25 113.908 162.25C114.54 162.25 115.079 161.875 115.525 161.125C115.704 160.828 115.876 160.473 116.04 160.059L117.786 155.664C117.865 155.453 117.954 155.336 118.056 155.312C118.103 155.305 118.154 155.301 118.208 155.301C118.372 155.301 118.466 155.25 118.49 155.148C118.497 155.109 118.501 155.059 118.501 154.996H116.697V155.301H117.564L116.158 158.84L114.622 155.301H115.384V154.996H112.911V155.301H113.451L115.63 160.105C115.224 161.09 114.833 161.656 114.458 161.805C114.365 161.844 114.267 161.863 114.165 161.863ZM122.521 161.934V159.531C122.889 159.906 123.373 160.102 123.974 160.117C124.701 160.117 125.299 159.844 125.767 159.297C126.197 158.789 126.412 158.145 126.412 157.363C126.412 156.434 126.146 155.738 125.615 155.277C125.287 154.996 124.889 154.855 124.42 154.855C123.724 154.855 123.185 155.117 122.803 155.641C122.678 155.812 122.58 156.004 122.51 156.215L122.451 154.996H120.611V155.289H121.396V161.266C121.396 161.609 121.291 161.816 121.08 161.887C120.971 161.918 120.814 161.934 120.611 161.934V162.227H123.553C123.553 162.055 123.502 161.961 123.4 161.945C123.361 161.938 123.314 161.934 123.26 161.934H122.521ZM123.939 155.359C124.627 155.359 125.025 155.875 125.135 156.906C125.158 157.094 125.17 157.293 125.17 157.504C125.17 158.723 124.869 159.461 124.267 159.719C124.127 159.781 123.978 159.812 123.822 159.812C123.306 159.812 122.935 159.527 122.709 158.957C122.576 158.613 122.51 158.203 122.51 157.727C122.51 156.742 122.748 156.043 123.224 155.629C123.443 155.449 123.681 155.359 123.939 155.359ZM131.152 160.117C131.699 160.117 132.035 159.871 132.16 159.379C132.199 159.238 132.223 159.078 132.231 158.898L131.926 158.887C131.871 159.441 131.723 159.723 131.481 159.73C131.293 159.715 131.195 159.516 131.188 159.133V156.672C131.172 155.469 130.512 154.863 129.207 154.855C128.262 154.855 127.645 155.066 127.356 155.488C127.27 155.621 127.227 155.754 127.227 155.887C127.227 156.137 127.344 156.297 127.578 156.367C127.641 156.383 127.703 156.391 127.766 156.391C128.008 156.391 128.176 156.262 128.27 156.004C128.285 155.965 128.305 155.906 128.328 155.828C128.43 155.516 128.555 155.316 128.703 155.23C128.813 155.176 128.945 155.148 129.102 155.148C129.734 155.164 130.055 155.574 130.063 156.379V157.129C128.188 157.152 127.152 157.578 126.957 158.406C126.934 158.516 126.922 158.629 126.922 158.746C126.922 159.371 127.191 159.789 127.731 160C127.934 160.078 128.156 160.117 128.399 160.117C128.992 160.117 129.469 159.914 129.828 159.508C129.945 159.367 130.035 159.219 130.098 159.062C130.215 159.758 130.566 160.109 131.152 160.117ZM128.879 159.637C128.449 159.637 128.195 159.383 128.117 158.875C128.102 158.781 128.094 158.68 128.094 158.57C128.094 158.039 128.375 157.703 128.938 157.562C129.227 157.492 129.602 157.453 130.063 157.445V158.465C129.93 159.012 129.656 159.375 129.242 159.555C129.117 159.609 128.996 159.637 128.879 159.637ZM134.299 159.801C134.83 159.801 135.17 159.633 135.319 159.297C135.366 159.195 135.389 159.09 135.389 158.98C135.389 158.629 135.143 158.328 134.651 158.078C134.549 158.023 134.381 157.945 134.147 157.844C133.53 157.578 133.119 157.332 132.916 157.105C132.698 156.855 132.588 156.562 132.588 156.227C132.588 155.641 132.909 155.234 133.549 155.008C133.838 154.906 134.155 154.855 134.498 154.855C135.061 154.855 135.522 154.965 135.881 155.184C135.881 154.957 135.94 154.828 136.057 154.797C136.096 154.789 136.139 154.785 136.186 154.785V156.25H135.858C135.826 155.531 135.432 155.168 134.674 155.16C134.127 155.16 133.787 155.328 133.655 155.664C133.623 155.75 133.608 155.84 133.608 155.934C133.608 156.27 133.846 156.559 134.323 156.801C134.424 156.848 134.588 156.918 134.815 157.012C135.44 157.277 135.854 157.523 136.057 157.75C136.291 158.016 136.409 158.324 136.409 158.676C136.409 159.316 136.073 159.75 135.401 159.977C135.127 160.07 134.823 160.117 134.487 160.117C133.869 160.109 133.342 159.977 132.905 159.719C132.905 159.922 132.854 160.039 132.752 160.07C132.705 160.078 132.651 160.082 132.588 160.082V158.301H132.951C132.967 159.293 133.416 159.793 134.299 159.801ZM138.84 159.801C139.372 159.801 139.711 159.633 139.86 159.297C139.907 159.195 139.93 159.09 139.93 158.98C139.93 158.629 139.684 158.328 139.192 158.078C139.09 158.023 138.922 157.945 138.688 157.844C138.071 157.578 137.661 157.332 137.458 157.105C137.239 156.855 137.129 156.562 137.129 156.227C137.129 155.641 137.45 155.234 138.09 155.008C138.379 154.906 138.696 154.855 139.04 154.855C139.602 154.855 140.063 154.965 140.422 155.184C140.422 154.957 140.481 154.828 140.598 154.797C140.637 154.789 140.68 154.785 140.727 154.785V156.25H140.399C140.368 155.531 139.973 155.168 139.215 155.16C138.669 155.16 138.329 155.328 138.196 155.664C138.165 155.75 138.149 155.84 138.149 155.934C138.149 156.27 138.387 156.559 138.864 156.801C138.965 156.848 139.129 156.918 139.356 157.012C139.981 157.277 140.395 157.523 140.598 157.75C140.833 158.016 140.95 158.324 140.95 158.676C140.95 159.316 140.614 159.75 139.942 159.977C139.669 160.07 139.364 160.117 139.028 160.117C138.411 160.109 137.883 159.977 137.446 159.719C137.446 159.922 137.395 160.039 137.294 160.07C137.247 160.078 137.192 160.082 137.129 160.082V158.301H137.493C137.508 159.293 137.958 159.793 138.84 159.801ZM143.675 155.289V154.996H141.202V155.289H141.706L143.136 159.227C143.3 159.68 143.464 159.941 143.628 160.012C143.706 160.043 143.807 160.059 143.932 160.059H144.237L145.28 156.859L146.1 159.227C146.257 159.672 146.397 159.93 146.522 160C146.608 160.039 146.721 160.059 146.862 160.059H147.132L148.573 155.676C148.651 155.449 148.753 155.324 148.878 155.301C148.917 155.293 148.956 155.289 148.995 155.289C149.151 155.289 149.241 155.234 149.264 155.125C149.272 155.086 149.276 155.043 149.276 154.996H147.565V155.289H148.35L147.132 159.086L145.843 155.289H146.616V154.996H144.636L145.104 156.355L144.214 159.098L142.866 155.289H143.675ZM150.7 157.48C150.778 155.988 151.231 155.211 152.06 155.148C152.802 155.148 153.239 155.633 153.372 156.602C153.403 156.852 153.419 157.129 153.419 157.434C153.403 159.012 152.954 159.809 152.071 159.824C151.29 159.824 150.845 159.277 150.735 158.184C150.712 157.973 150.7 157.738 150.7 157.48ZM152.095 154.855C151.259 154.855 150.587 155.141 150.079 155.711C149.665 156.18 149.458 156.754 149.458 157.434C149.458 158.379 149.794 159.102 150.466 159.602C150.919 159.945 151.442 160.117 152.036 160.117C152.849 160.117 153.509 159.828 154.017 159.25C154.446 158.758 154.661 158.16 154.661 157.457C154.661 156.512 154.317 155.797 153.63 155.312C153.185 155.008 152.673 154.855 152.095 154.855ZM157.937 159.707H157.081V157.445C157.081 156.633 157.288 156.043 157.702 155.676C157.827 155.566 157.941 155.508 158.042 155.5C158.152 155.5 158.261 155.594 158.37 155.781C158.503 156.016 158.636 156.156 158.769 156.203C158.824 156.219 158.882 156.227 158.945 156.227C159.218 156.227 159.402 156.098 159.495 155.84C159.519 155.77 159.531 155.699 159.531 155.629C159.531 155.262 159.347 155.031 158.98 154.938C158.894 154.922 158.808 154.914 158.722 154.914C158.253 154.914 157.831 155.109 157.456 155.5C157.284 155.688 157.152 155.898 157.058 156.133L156.999 154.996H155.159V155.289H155.956V159.039C155.956 159.391 155.843 159.598 155.616 159.66C155.515 159.691 155.363 159.707 155.159 159.707V160H158.23C158.23 159.828 158.179 159.734 158.077 159.719C158.038 159.711 157.991 159.707 157.937 159.707ZM163.791 160H165.642C165.642 159.82 165.591 159.723 165.49 159.707C165.451 159.699 165.408 159.695 165.361 159.695H164.787L164.775 152.383H162.548V152.676H163.65V155.43C163.267 155.039 162.767 154.844 162.15 154.844C161.337 154.844 160.705 155.184 160.251 155.863C159.931 156.363 159.771 156.945 159.771 157.609C159.771 158.562 160.08 159.27 160.697 159.73C161.041 159.988 161.427 160.117 161.857 160.117C162.669 160.117 163.255 159.723 163.615 158.934C163.63 158.895 163.646 158.855 163.662 158.816L163.791 160ZM161.013 157.469C161.013 156.383 161.279 155.676 161.81 155.348C161.99 155.238 162.185 155.184 162.396 155.184C162.951 155.184 163.33 155.516 163.533 156.18C163.626 156.484 163.673 156.84 163.673 157.246C163.673 158.262 163.435 158.969 162.958 159.367C162.755 159.539 162.525 159.625 162.267 159.625C161.689 159.625 161.306 159.242 161.119 158.477C161.048 158.18 161.013 157.844 161.013 157.469ZM167.5 159.484C167.5 159.062 167.344 158.793 167.031 158.676C166.945 158.645 166.855 158.629 166.761 158.629C166.48 158.629 166.281 158.766 166.164 159.039C166.125 159.133 166.105 159.227 166.105 159.32C166.105 159.617 166.25 159.824 166.539 159.941C166.578 159.957 166.617 159.969 166.656 159.977C166.836 160.023 166.929 160.102 166.937 160.211C166.929 160.438 166.765 160.719 166.445 161.055L166.691 161.23C167.191 160.637 167.461 160.055 167.5 159.484ZM172.539 159.707H171.977V157.938L172.516 157.434L174.074 160H175.785C175.785 159.828 175.735 159.734 175.633 159.719C175.594 159.711 175.547 159.707 175.492 159.707H175.176L173.289 156.695L174.297 155.746C174.571 155.488 174.774 155.344 174.906 155.312C174.977 155.297 175.047 155.289 175.117 155.289C175.297 155.289 175.395 155.23 175.41 155.113C175.418 155.074 175.422 155.035 175.422 154.996H173.43V155.289H174.297L171.977 157.469V152.383H169.961V152.676H170.852V159.039C170.852 159.391 170.715 159.598 170.442 159.66C170.324 159.691 170.164 159.707 169.961 159.707V160H172.832C172.832 159.828 172.781 159.734 172.68 159.719C172.641 159.711 172.594 159.707 172.539 159.707ZM178.37 155.148C178.87 155.148 179.186 155.402 179.319 155.91C179.358 156.059 179.377 156.211 179.377 156.367C179.377 156.75 179.217 156.984 178.897 157.07C178.717 157.117 178.463 157.133 178.135 157.117L177.092 157.094C177.124 156.094 177.413 155.473 177.959 155.23C178.084 155.176 178.221 155.148 178.37 155.148ZM180.467 158.84L180.186 158.746C179.928 159.285 179.53 159.617 178.991 159.742C178.866 159.773 178.741 159.789 178.616 159.789C177.639 159.789 177.131 159.008 177.092 157.445C177.092 157.438 177.092 157.43 177.092 157.422L178.37 157.445C179.44 157.469 180.108 157.34 180.374 157.059C180.499 156.91 180.561 156.723 180.561 156.496C180.561 155.91 180.268 155.465 179.682 155.16C179.291 154.957 178.85 154.855 178.358 154.855C177.428 154.855 176.737 155.211 176.284 155.922C175.995 156.375 175.85 156.902 175.85 157.504C175.85 158.543 176.229 159.289 176.987 159.742C177.401 159.992 177.87 160.117 178.393 160.117C179.276 160.117 179.913 159.801 180.303 159.168C180.366 159.059 180.42 158.949 180.467 158.84ZM183.626 155.148C184.126 155.148 184.442 155.402 184.575 155.91C184.614 156.059 184.634 156.211 184.634 156.367C184.634 156.75 184.473 156.984 184.153 157.07C183.973 157.117 183.719 157.133 183.391 157.117L182.348 157.094C182.38 156.094 182.669 155.473 183.216 155.23C183.341 155.176 183.477 155.148 183.626 155.148ZM185.723 158.84L185.442 158.746C185.184 159.285 184.786 159.617 184.247 159.742C184.122 159.773 183.997 159.789 183.872 159.789C182.895 159.789 182.387 159.008 182.348 157.445C182.348 157.438 182.348 157.43 182.348 157.422L183.626 157.445C184.696 157.469 185.364 157.34 185.63 157.059C185.755 156.91 185.817 156.723 185.817 156.496C185.817 155.91 185.524 155.465 184.938 155.16C184.548 154.957 184.106 154.855 183.614 154.855C182.684 154.855 181.993 155.211 181.54 155.922C181.251 156.375 181.106 156.902 181.106 157.504C181.106 158.543 181.485 159.289 182.243 159.742C182.657 159.992 183.126 160.117 183.649 160.117C184.532 160.117 185.169 159.801 185.559 159.168C185.622 159.059 185.676 158.949 185.723 158.84ZM188.132 161.934V159.531C188.499 159.906 188.983 160.102 189.585 160.117C190.311 160.117 190.909 159.844 191.378 159.297C191.808 158.789 192.022 158.145 192.022 157.363C192.022 156.434 191.757 155.738 191.226 155.277C190.897 154.996 190.499 154.855 190.03 154.855C189.335 154.855 188.796 155.117 188.413 155.641C188.288 155.812 188.19 156.004 188.12 156.215L188.061 154.996H186.222V155.289H187.007V161.266C187.007 161.609 186.901 161.816 186.69 161.887C186.581 161.918 186.425 161.934 186.222 161.934V162.227H189.163C189.163 162.055 189.112 161.961 189.011 161.945C188.972 161.938 188.925 161.934 188.87 161.934H188.132ZM189.55 155.359C190.237 155.359 190.636 155.875 190.745 156.906C190.768 157.094 190.78 157.293 190.78 157.504C190.78 158.723 190.479 159.461 189.878 159.719C189.737 159.781 189.589 159.812 189.433 159.812C188.917 159.812 188.546 159.527 188.319 158.957C188.186 158.613 188.12 158.203 188.12 157.727C188.12 156.742 188.358 156.043 188.835 155.629C189.054 155.449 189.292 155.359 189.55 155.359ZM64.4462 181.863C64.3134 181.863 64.2119 181.766 64.1416 181.57C64.0478 181.312 63.958 181.156 63.872 181.102C63.7939 181.047 63.7001 181.02 63.5908 181.02C63.333 181.02 63.1728 181.137 63.1103 181.371C63.1025 181.41 63.0986 181.449 63.0986 181.488C63.0986 181.762 63.2626 181.977 63.5908 182.133C63.7705 182.211 63.9697 182.25 64.1884 182.25C64.8212 182.25 65.3603 181.875 65.8056 181.125C65.9853 180.828 66.1572 180.473 66.3212 180.059L68.0673 175.664C68.1455 175.453 68.2353 175.336 68.3369 175.312C68.3837 175.305 68.4345 175.301 68.4892 175.301C68.6533 175.301 68.747 175.25 68.7705 175.148C68.7783 175.109 68.7822 175.059 68.7822 174.996H66.9775V175.301H67.8447L66.4384 178.84L64.9033 175.301H65.665V174.996H63.1923V175.301H63.7314L65.9111 180.105C65.5048 181.09 65.1142 181.656 64.7392 181.805C64.6455 181.844 64.5478 181.863 64.4462 181.863ZM70.2297 177.48C70.3078 175.988 70.7609 175.211 71.5891 175.148C72.3312 175.148 72.7687 175.633 72.9016 176.602C72.9328 176.852 72.9484 177.129 72.9484 177.434C72.9328 179.012 72.4836 179.809 71.6008 179.824C70.8195 179.824 70.3742 179.277 70.2648 178.184C70.2414 177.973 70.2297 177.738 70.2297 177.48ZM71.6242 174.855C70.7883 174.855 70.1164 175.141 69.6086 175.711C69.1945 176.18 68.9875 176.754 68.9875 177.434C68.9875 178.379 69.3234 179.102 69.9953 179.602C70.4484 179.945 70.9719 180.117 71.5656 180.117C72.3781 180.117 73.0383 179.828 73.5461 179.25C73.9758 178.758 74.1906 178.16 74.1906 177.457C74.1906 176.512 73.8469 175.797 73.1594 175.312C72.7141 175.008 72.2023 174.855 71.6242 174.855ZM80.4194 179.707H79.9155V174.996H77.9819V175.289H78.7787V177.996C78.7553 178.66 78.5209 179.129 78.0756 179.402C77.8959 179.512 77.7123 179.566 77.5248 179.566C76.9623 179.566 76.6342 179.266 76.5405 178.664C76.5248 178.555 76.517 178.445 76.517 178.336V174.996H74.5834V175.289H75.392V178.148C75.3998 179.453 75.9584 180.109 77.0678 180.117C77.6772 180.117 78.1655 179.867 78.5326 179.367C78.642 179.219 78.7319 179.062 78.8022 178.898L78.8842 180H80.7123C80.7123 179.828 80.6616 179.734 80.56 179.719C80.5209 179.711 80.4741 179.707 80.4194 179.707ZM83.8473 179.707H82.9919V177.445C82.9919 176.633 83.1989 176.043 83.613 175.676C83.738 175.566 83.8512 175.508 83.9528 175.5C84.0622 175.5 84.1716 175.594 84.2809 175.781C84.4137 176.016 84.5466 176.156 84.6794 176.203C84.7341 176.219 84.7926 176.227 84.8551 176.227C85.1286 176.227 85.3122 176.098 85.4059 175.84C85.4294 175.77 85.4411 175.699 85.4411 175.629C85.4411 175.262 85.2575 175.031 84.8903 174.938C84.8044 174.922 84.7184 174.914 84.6325 174.914C84.1637 174.914 83.7419 175.109 83.3669 175.5C83.195 175.688 83.0622 175.898 82.9684 176.133L82.9098 174.996H81.07V175.289H81.8669V179.039C81.8669 179.391 81.7536 179.598 81.527 179.66C81.4255 179.691 81.2731 179.707 81.07 179.707V180H84.1403C84.1403 179.828 84.0895 179.734 83.988 179.719C83.9489 179.711 83.902 179.707 83.8473 179.707ZM91.8752 180.117C92.422 180.117 92.758 179.871 92.883 179.379C92.922 179.238 92.9455 179.078 92.9533 178.898L92.6486 178.887C92.5939 179.441 92.4455 179.723 92.2033 179.73C92.0158 179.715 91.9181 179.516 91.9103 179.133V176.672C91.8947 175.469 91.2345 174.863 89.9298 174.855C88.9845 174.855 88.3673 175.066 88.0783 175.488C87.9923 175.621 87.9494 175.754 87.9494 175.887C87.9494 176.137 88.0666 176.297 88.3009 176.367C88.3634 176.383 88.4259 176.391 88.4884 176.391C88.7306 176.391 88.8986 176.262 88.9923 176.004C89.008 175.965 89.0275 175.906 89.0509 175.828C89.1525 175.516 89.2775 175.316 89.4259 175.23C89.5353 175.176 89.6681 175.148 89.8244 175.148C90.4572 175.164 90.7775 175.574 90.7853 176.379V177.129C88.9103 177.152 87.8752 177.578 87.6798 178.406C87.6564 178.516 87.6447 178.629 87.6447 178.746C87.6447 179.371 87.9142 179.789 88.4533 180C88.6564 180.078 88.8791 180.117 89.1212 180.117C89.715 180.117 90.1916 179.914 90.5509 179.508C90.6681 179.367 90.758 179.219 90.8205 179.062C90.9377 179.758 91.2892 180.109 91.8752 180.117ZM89.6017 179.637C89.172 179.637 88.9181 179.383 88.84 178.875C88.8244 178.781 88.8166 178.68 88.8166 178.57C88.8166 178.039 89.0978 177.703 89.6603 177.562C89.9494 177.492 90.3244 177.453 90.7853 177.445V178.465C90.6525 179.012 90.3791 179.375 89.965 179.555C89.84 179.609 89.7189 179.637 89.6017 179.637ZM93.1937 177.527C93.1937 178.551 93.5726 179.289 94.3305 179.742C94.7523 179.992 95.2328 180.117 95.7719 180.117C96.5844 180.117 97.2016 179.852 97.6234 179.32C97.7406 179.172 97.8344 179.012 97.9047 178.84L97.6 178.746C97.3422 179.309 96.9125 179.645 96.3109 179.754C96.1859 179.777 96.0609 179.789 95.9359 179.789C95.2719 179.789 94.8226 179.414 94.5883 178.664C94.4867 178.328 94.4359 177.934 94.4359 177.48C94.4437 175.934 94.8969 175.156 95.7953 175.148C96.1859 175.148 96.4242 175.316 96.5101 175.652C96.5258 175.707 96.5414 175.801 96.557 175.934C96.6117 176.27 96.7016 176.48 96.8266 176.566C96.9203 176.621 97.0336 176.652 97.1664 176.66C97.5023 176.668 97.7016 176.535 97.7641 176.262C97.7797 176.207 97.7875 176.156 97.7875 176.109C97.7875 175.742 97.557 175.43 97.0961 175.172C96.7133 174.961 96.2719 174.855 95.7719 174.855C94.8266 174.855 94.1195 175.207 93.6508 175.91C93.3461 176.363 93.1937 176.902 93.1937 177.527ZM98.1451 177.527C98.1451 178.551 98.5241 179.289 99.2819 179.742C99.7037 179.992 100.184 180.117 100.723 180.117C101.536 180.117 102.153 179.852 102.575 179.32C102.692 179.172 102.786 179.012 102.856 178.84L102.551 178.746C102.294 179.309 101.864 179.645 101.262 179.754C101.137 179.777 101.012 179.789 100.887 179.789C100.223 179.789 99.7741 179.414 99.5397 178.664C99.4381 178.328 99.3873 177.934 99.3873 177.48C99.3951 175.934 99.8483 175.156 100.747 175.148C101.137 175.148 101.376 175.316 101.462 175.652C101.477 175.707 101.493 175.801 101.508 175.934C101.563 176.27 101.653 176.48 101.778 176.566C101.872 176.621 101.985 176.652 102.118 176.66C102.454 176.668 102.653 176.535 102.715 176.262C102.731 176.207 102.739 176.156 102.739 176.109C102.739 175.742 102.508 175.43 102.047 175.172C101.665 174.961 101.223 174.855 100.723 174.855C99.778 174.855 99.0709 175.207 98.6022 175.91C98.2975 176.363 98.1451 176.902 98.1451 177.527ZM104.339 177.48C104.417 175.988 104.87 175.211 105.698 175.148C106.44 175.148 106.878 175.633 107.011 176.602C107.042 176.852 107.057 177.129 107.057 177.434C107.042 179.012 106.593 179.809 105.71 179.824C104.929 179.824 104.483 179.277 104.374 178.184C104.35 177.973 104.339 177.738 104.339 177.48ZM105.733 174.855C104.897 174.855 104.225 175.141 103.718 175.711C103.304 176.18 103.097 176.754 103.097 177.434C103.097 178.379 103.432 179.102 104.104 179.602C104.557 179.945 105.081 180.117 105.675 180.117C106.487 180.117 107.147 179.828 107.655 179.25C108.085 178.758 108.3 178.16 108.3 177.457C108.3 176.512 107.956 175.797 107.268 175.312C106.823 175.008 106.311 174.855 105.733 174.855ZM114.528 179.707H114.025V174.996H112.091V175.289H112.888V177.996C112.864 178.66 112.63 179.129 112.185 179.402C112.005 179.512 111.821 179.566 111.634 179.566C111.071 179.566 110.743 179.266 110.65 178.664C110.634 178.555 110.626 178.445 110.626 178.336V174.996H108.692V175.289H109.501V178.148C109.509 179.453 110.067 180.109 111.177 180.117C111.786 180.117 112.275 179.867 112.642 179.367C112.751 179.219 112.841 179.062 112.911 178.898L112.993 180H114.821C114.821 179.828 114.771 179.734 114.669 179.719C114.63 179.711 114.583 179.707 114.528 179.707ZM117.523 179.707H117.089L117.101 176.883C117.156 176.25 117.406 175.805 117.851 175.547C118.015 175.453 118.183 175.406 118.355 175.406C118.824 175.406 119.124 175.641 119.257 176.109C119.296 176.266 119.316 176.43 119.316 176.602V179.039C119.316 179.383 119.222 179.59 119.035 179.66C118.925 179.691 118.773 179.707 118.577 179.707V180H121.249C121.249 179.828 121.199 179.734 121.097 179.719C121.058 179.711 121.011 179.707 120.956 179.707H120.452V176.754C120.452 175.918 120.163 175.348 119.585 175.043C119.359 174.918 119.109 174.855 118.835 174.855C118.257 174.855 117.773 175.086 117.382 175.547C117.257 175.703 117.156 175.871 117.077 176.051L117.019 174.996H115.167V175.289H115.964V179.039C115.964 179.391 115.851 179.598 115.624 179.66C115.515 179.691 115.363 179.707 115.167 179.707V180H117.816C117.816 179.828 117.765 179.734 117.663 179.719C117.624 179.711 117.577 179.707 117.523 179.707ZM121.466 175.312H122.287V178.465C122.287 179.488 122.712 180.039 123.564 180.117C123.634 180.125 123.701 180.129 123.763 180.129C124.427 180.129 124.869 179.801 125.087 179.145C125.127 179.027 125.158 178.906 125.181 178.781L124.865 178.723C124.693 179.418 124.412 179.77 124.021 179.777C123.623 179.762 123.42 179.461 123.412 178.875V175.312H125.111V175.02H123.412V173.66L122.287 173.906V175.02H121.466V175.312ZM129.295 179.801C129.826 179.801 130.166 179.633 130.315 179.297C130.361 179.195 130.385 179.09 130.385 178.98C130.385 178.629 130.139 178.328 129.647 178.078C129.545 178.023 129.377 177.945 129.143 177.844C128.525 177.578 128.115 177.332 127.912 177.105C127.693 176.855 127.584 176.562 127.584 176.227C127.584 175.641 127.904 175.234 128.545 175.008C128.834 174.906 129.15 174.855 129.494 174.855C130.057 174.855 130.518 174.965 130.877 175.184C130.877 174.957 130.936 174.828 131.053 174.797C131.092 174.789 131.135 174.785 131.182 174.785V176.25H130.854C130.822 175.531 130.428 175.168 129.67 175.16C129.123 175.16 128.783 175.328 128.65 175.664C128.619 175.75 128.604 175.84 128.604 175.934C128.604 176.27 128.842 176.559 129.318 176.801C129.42 176.848 129.584 176.918 129.811 177.012C130.436 177.277 130.85 177.523 131.053 177.75C131.287 178.016 131.404 178.324 131.404 178.676C131.404 179.316 131.068 179.75 130.397 179.977C130.123 180.07 129.818 180.117 129.482 180.117C128.865 180.109 128.338 179.977 127.9 179.719C127.9 179.922 127.85 180.039 127.748 180.07C127.701 180.078 127.647 180.082 127.584 180.082V178.301H127.947C127.963 179.293 128.412 179.793 129.295 179.801ZM136.157 180.117C136.703 180.117 137.039 179.871 137.164 179.379C137.203 179.238 137.227 179.078 137.235 178.898L136.93 178.887C136.875 179.441 136.727 179.723 136.485 179.73C136.297 179.715 136.2 179.516 136.192 179.133V176.672C136.176 175.469 135.516 174.863 134.211 174.855C133.266 174.855 132.649 175.066 132.36 175.488C132.274 175.621 132.231 175.754 132.231 175.887C132.231 176.137 132.348 176.297 132.582 176.367C132.645 176.383 132.707 176.391 132.77 176.391C133.012 176.391 133.18 176.262 133.274 176.004C133.289 175.965 133.309 175.906 133.332 175.828C133.434 175.516 133.559 175.316 133.707 175.23C133.817 175.176 133.95 175.148 134.106 175.148C134.739 175.164 135.059 175.574 135.067 176.379V177.129C133.192 177.152 132.157 177.578 131.961 178.406C131.938 178.516 131.926 178.629 131.926 178.746C131.926 179.371 132.196 179.789 132.735 180C132.938 180.078 133.16 180.117 133.403 180.117C133.996 180.117 134.473 179.914 134.832 179.508C134.95 179.367 135.039 179.219 135.102 179.062C135.219 179.758 135.571 180.109 136.157 180.117ZM133.883 179.637C133.453 179.637 133.2 179.383 133.121 178.875C133.106 178.781 133.098 178.68 133.098 178.57C133.098 178.039 133.379 177.703 133.942 177.562C134.231 177.492 134.606 177.453 135.067 177.445V178.465C134.934 179.012 134.66 179.375 134.246 179.555C134.121 179.609 134 179.637 133.883 179.637ZM140.229 179.707H139.397V175.301H140.733V174.996H139.397V174.926C139.397 173.66 139.549 172.922 139.854 172.711C139.948 172.648 140.057 172.617 140.182 172.617C140.401 172.617 140.585 172.762 140.733 173.051C140.881 173.355 140.979 173.531 141.026 173.578C141.127 173.672 141.237 173.719 141.354 173.719C141.635 173.719 141.811 173.605 141.881 173.379C141.897 173.324 141.905 173.273 141.905 173.227C141.905 172.914 141.706 172.668 141.307 172.488C141.049 172.379 140.752 172.324 140.417 172.324C139.604 172.324 139.01 172.641 138.635 173.273C138.393 173.688 138.272 174.203 138.272 174.82V174.996H137.393V175.301H138.272V179.039C138.272 179.391 138.135 179.602 137.862 179.672C137.745 179.695 137.588 179.707 137.393 179.707V180H140.51C140.51 179.836 140.46 179.742 140.358 179.719C140.319 179.711 140.276 179.707 140.229 179.707ZM143.516 175.148C144.016 175.148 144.333 175.402 144.466 175.91C144.505 176.059 144.524 176.211 144.524 176.367C144.524 176.75 144.364 176.984 144.044 177.07C143.864 177.117 143.61 177.133 143.282 177.117L142.239 177.094C142.27 176.094 142.559 175.473 143.106 175.23C143.231 175.176 143.368 175.148 143.516 175.148ZM145.614 178.84L145.333 178.746C145.075 179.285 144.677 179.617 144.137 179.742C144.012 179.773 143.887 179.789 143.762 179.789C142.786 179.789 142.278 179.008 142.239 177.445C142.239 177.438 142.239 177.43 142.239 177.422L143.516 177.445C144.587 177.469 145.255 177.34 145.52 177.059C145.645 176.91 145.708 176.723 145.708 176.496C145.708 175.91 145.415 175.465 144.829 175.16C144.438 174.957 143.997 174.855 143.505 174.855C142.575 174.855 141.884 175.211 141.43 175.922C141.141 176.375 140.997 176.902 140.997 177.504C140.997 178.543 141.376 179.289 142.134 179.742C142.548 179.992 143.016 180.117 143.54 180.117C144.423 180.117 145.059 179.801 145.45 179.168C145.512 179.059 145.567 178.949 145.614 178.84ZM147.542 177.926C147.542 176.965 147.663 175.926 147.905 174.809C148.022 174.277 148.081 173.887 148.081 173.637C148.065 173.121 147.827 172.859 147.366 172.852C146.89 172.867 146.647 173.133 146.64 173.648C146.64 173.883 146.718 174.371 146.874 175.113C147.069 176.043 147.167 176.98 147.167 177.926H147.542ZM148.046 179.367C148.046 179.086 147.921 178.879 147.671 178.746C147.569 178.691 147.464 178.664 147.355 178.664C147.065 178.664 146.858 178.797 146.733 179.062C146.687 179.164 146.663 179.266 146.663 179.367C146.663 179.664 146.796 179.875 147.062 180C147.155 180.039 147.253 180.059 147.355 180.059C147.636 180.059 147.843 179.93 147.976 179.672C148.022 179.57 148.046 179.469 148.046 179.367Z" fill="#231F20"/>
<path d="M51.2628 216.928H52.669V223.133C52.6925 225.816 54.1749 227.164 57.1163 227.176C59.003 227.176 60.1925 226.455 60.6846 225.014C60.8721 224.428 60.9659 223.719 60.9659 222.887V216.928H62.3721V216.453H58.9092V216.928H60.3155V222.992C60.3038 225.418 59.3604 226.637 57.4854 226.648C56.3018 226.648 55.5694 226.004 55.2882 224.715C55.1827 224.234 55.13 223.66 55.13 222.992V216.928H56.5362V216.453H51.2628V216.928ZM66.334 229.883V226.367C66.791 226.883 67.4883 227.152 68.4258 227.176C69.5859 227.176 70.5176 226.73 71.2207 225.84C71.8066 225.066 72.0996 224.105 72.0996 222.957C72.0996 221.469 71.6543 220.391 70.7637 219.723C70.2832 219.359 69.7324 219.178 69.1113 219.178C68.1738 219.178 67.4121 219.523 66.8262 220.215C66.5918 220.496 66.416 220.801 66.2988 221.129L66.2109 219.441H63.0996V219.898H64.1015V228.969C64.1015 229.473 63.9082 229.766 63.5215 229.848C63.3926 229.871 63.2519 229.883 63.0996 229.883V230.34H67.6699C67.6699 230.07 67.5937 229.924 67.4414 229.9C67.3711 229.889 67.3008 229.883 67.2305 229.883H66.334ZM68.1797 220.021C69.1875 220.045 69.6914 221.111 69.6914 223.221C69.6797 225.529 69.1347 226.689 68.0566 226.701C67.4238 226.701 66.9492 226.314 66.6328 225.541C66.4219 225.002 66.3164 224.34 66.3164 223.555C66.3164 222.09 66.6328 221.047 67.2656 220.426C67.5469 220.156 67.8515 220.021 68.1797 220.021ZM79.5067 227H82.6532C82.6532 226.73 82.5829 226.578 82.4423 226.543C82.3837 226.531 82.3134 226.525 82.2313 226.525H81.4227V215.574H77.5907V216.031H79.1903V219.934C78.5927 219.418 77.8778 219.16 77.0458 219.16C75.9325 219.16 75.0243 219.588 74.3212 220.443C73.7118 221.217 73.4071 222.189 73.4071 223.361C73.4071 224.814 73.8817 225.887 74.831 226.578C75.37 226.977 75.9677 227.176 76.6239 227.176C77.7138 227.176 78.5224 226.713 79.0497 225.787C79.1317 225.646 79.202 225.5 79.2606 225.348L79.5067 227ZM75.8153 223.15C75.8153 221.439 76.1845 220.361 76.9227 219.916C77.1337 219.799 77.3563 219.74 77.5907 219.74C78.4345 219.74 78.956 220.391 79.1552 221.691C79.202 222.043 79.2255 222.418 79.2255 222.816C79.2255 224.574 78.8563 225.693 78.1181 226.174C77.9071 226.303 77.6786 226.367 77.4325 226.367C76.6122 226.367 76.1024 225.699 75.9032 224.363C75.8446 224 75.8153 223.596 75.8153 223.15ZM90.0252 227.176C90.8807 227.176 91.4139 226.865 91.6248 226.244C91.6951 226.01 91.7479 225.711 91.783 225.348L91.326 225.33C91.2557 226.139 91.0506 226.549 90.7107 226.561C90.4529 226.537 90.324 226.244 90.324 225.682V222.008C90.324 220.543 89.6443 219.641 88.285 219.301C87.9334 219.219 87.5525 219.178 87.1424 219.178C85.5486 219.178 84.5467 219.523 84.1365 220.215C84.0311 220.391 83.9783 220.578 83.9783 220.777C83.9783 221.234 84.1951 221.521 84.6287 221.639C84.7342 221.674 84.8455 221.691 84.9627 221.691C85.4666 221.691 85.8064 221.445 85.9822 220.953C86.0057 220.883 86.0408 220.766 86.0877 220.602C86.2166 220.133 86.3807 219.84 86.5799 219.723C86.7088 219.664 86.8553 219.635 87.0193 219.635C87.5701 219.635 87.9041 219.969 88.0213 220.637C88.0682 220.883 88.0916 221.176 88.0916 221.516V222.658C85.0799 222.717 83.5682 223.514 83.5564 225.049C83.5564 226.092 84.0135 226.76 84.9275 227.053C85.1971 227.135 85.4959 227.176 85.824 227.176C86.8201 227.176 87.5525 226.801 88.0213 226.051C88.115 225.898 88.1912 225.74 88.2498 225.576C88.4959 226.584 89.0877 227.117 90.0252 227.176ZM86.7381 226.42C86.1522 226.396 85.8533 225.875 85.8416 224.855C85.8416 224.082 86.158 223.578 86.7908 223.344C87.1307 223.238 87.5643 223.174 88.0916 223.15V224.855C87.8689 225.676 87.5115 226.18 87.0193 226.367C86.9139 226.402 86.8201 226.42 86.7381 226.42ZM92.4226 219.986H93.6355V224.381C93.6355 226.08 94.3386 227.012 95.7448 227.176C95.8855 227.188 96.0261 227.193 96.1667 227.193C97.0691 227.193 97.6902 226.9 98.03 226.314C98.1941 226.021 98.323 225.635 98.4167 225.154L97.9421 225.084C97.7077 226.033 97.362 226.555 96.905 226.648C96.8347 226.66 96.7644 226.666 96.6941 226.666C96.2605 226.666 95.9968 226.361 95.903 225.752C95.8796 225.611 95.8679 225.465 95.8679 225.312V219.986H98.1882V219.529H95.8679V217.49L93.6355 217.859V219.529H92.4226V219.986ZM103.257 219.635C104.007 219.658 104.388 220.297 104.4 221.551C104.4 222.102 104.236 222.441 103.908 222.57C103.673 222.652 103.322 222.682 102.853 222.658L101.728 222.605C101.81 220.66 102.32 219.67 103.257 219.635ZM106.545 225.189L106.123 225.049C105.795 225.764 105.279 226.25 104.576 226.508C104.295 226.613 104.007 226.666 103.714 226.666C102.777 226.666 102.173 226.068 101.904 224.873C101.798 224.381 101.74 223.795 101.728 223.115L103.345 223.168C105.232 223.227 106.328 222.928 106.632 222.271C106.703 222.107 106.738 221.926 106.738 221.727C106.738 220.73 106.228 220.004 105.209 219.547C104.634 219.301 103.984 219.178 103.257 219.178C101.933 219.178 100.902 219.629 100.164 220.531C99.6012 221.234 99.32 222.107 99.32 223.15C99.32 224.85 99.9586 226.033 101.236 226.701C101.845 227.018 102.537 227.176 103.31 227.176C104.681 227.176 105.666 226.695 106.263 225.734C106.38 225.559 106.474 225.377 106.545 225.189ZM116.384 216.928C117.603 216.951 118.218 217.771 118.23 219.389C118.206 221.006 117.568 221.82 116.314 221.832H115.382V216.928H116.384ZM117.14 227C117.07 226.707 116.912 226.549 116.665 226.525H115.382V222.359H116.824C118.851 222.359 120.123 221.721 120.638 220.443C120.79 220.08 120.867 219.676 120.867 219.23C120.867 218.129 120.374 217.338 119.39 216.857C118.828 216.588 118.16 216.453 117.386 216.453H111.515V216.928H112.921V226.525H111.515V227H117.14ZM126.235 226.543H124.934V222.746C125.016 221.516 125.315 220.766 125.83 220.496C125.912 220.461 125.989 220.443 126.059 220.443C126.188 220.443 126.328 220.578 126.481 220.848C126.692 221.223 126.92 221.457 127.166 221.551C127.284 221.586 127.412 221.604 127.553 221.604C128.022 221.604 128.356 221.381 128.555 220.936C128.625 220.783 128.661 220.625 128.661 220.461C128.661 219.875 128.373 219.506 127.799 219.354C127.659 219.318 127.512 219.301 127.36 219.301C126.633 219.301 125.994 219.588 125.444 220.162C125.198 220.443 125.01 220.748 124.881 221.076L124.758 219.441H121.682V219.898H122.702V225.629C122.702 226.145 122.496 226.438 122.086 226.508C121.969 226.531 121.834 226.543 121.682 226.543V227H126.657C126.657 226.73 126.58 226.584 126.428 226.561C126.369 226.549 126.305 226.543 126.235 226.543ZM133.378 226.543H132.728V219.441H129.476V219.898H130.495V225.629C130.495 226.145 130.29 226.438 129.88 226.508C129.763 226.531 129.628 226.543 129.476 226.543V227H133.8C133.8 226.73 133.724 226.584 133.572 226.561C133.513 226.549 133.449 226.543 133.378 226.543ZM132.886 217.139C132.886 216.623 132.658 216.242 132.2 215.996C132.001 215.879 131.79 215.82 131.568 215.82C131.064 215.82 130.683 216.049 130.425 216.506C130.32 216.705 130.267 216.916 130.267 217.139C130.267 217.654 130.495 218.029 130.952 218.264C131.152 218.369 131.357 218.422 131.568 218.422C132.083 218.422 132.464 218.205 132.71 217.771C132.827 217.572 132.886 217.361 132.886 217.139ZM138.535 219.881V219.441H134.475V219.881H135.16L137.375 225.805C137.633 226.473 137.838 226.859 137.99 226.965C138.119 227.047 138.307 227.088 138.553 227.088H139.186L141.735 220.391C141.852 220.098 142.004 219.934 142.192 219.898C142.262 219.887 142.332 219.881 142.403 219.881C142.59 219.881 142.695 219.869 142.719 219.846C142.742 219.775 142.754 219.641 142.754 219.441L139.906 219.441V219.881H141.348L139.274 225.189L137.34 219.881H138.535ZM149.898 227.176C150.753 227.176 151.286 226.865 151.497 226.244C151.567 226.01 151.62 225.711 151.655 225.348L151.198 225.33C151.128 226.139 150.923 226.549 150.583 226.561C150.325 226.537 150.196 226.244 150.196 225.682V222.008C150.196 220.543 149.517 219.641 148.157 219.301C147.806 219.219 147.425 219.178 147.015 219.178C145.421 219.178 144.419 219.523 144.009 220.215C143.903 220.391 143.851 220.578 143.851 220.777C143.851 221.234 144.067 221.521 144.501 221.639C144.607 221.674 144.718 221.691 144.835 221.691C145.339 221.691 145.679 221.445 145.855 220.953C145.878 220.883 145.913 220.766 145.96 220.602C146.089 220.133 146.253 219.84 146.452 219.723C146.581 219.664 146.728 219.635 146.892 219.635C147.442 219.635 147.776 219.969 147.894 220.637C147.941 220.883 147.964 221.176 147.964 221.516V222.658C144.952 222.717 143.441 223.514 143.429 225.049C143.429 226.092 143.886 226.76 144.8 227.053C145.069 227.135 145.368 227.176 145.696 227.176C146.692 227.176 147.425 226.801 147.894 226.051C147.987 225.898 148.064 225.74 148.122 225.576C148.368 226.584 148.96 227.117 149.898 227.176ZM146.61 226.42C146.025 226.396 145.726 225.875 145.714 224.855C145.714 224.082 146.03 223.578 146.663 223.344C147.003 223.238 147.437 223.174 147.964 223.15V224.855C147.741 225.676 147.384 226.18 146.892 226.367C146.786 226.402 146.692 226.42 146.61 226.42ZM152.559 223.203C152.559 224.914 153.209 226.092 154.51 226.736C155.119 227.029 155.816 227.176 156.602 227.176C157.82 227.176 158.758 226.807 159.414 226.068C159.637 225.811 159.807 225.529 159.924 225.225L159.467 225.102C159.139 225.805 158.582 226.279 157.797 226.525C157.492 226.619 157.188 226.666 156.883 226.666C156.074 226.666 155.535 226.303 155.266 225.576C155.066 225.037 154.967 224.275 154.967 223.291C154.967 221.322 155.277 220.15 155.898 219.775C156.086 219.67 156.309 219.617 156.566 219.617C157.082 219.617 157.398 219.857 157.516 220.338C157.539 220.432 157.568 220.59 157.604 220.812C157.674 221.352 157.814 221.697 158.025 221.85C158.189 221.967 158.412 222.025 158.693 222.025C159.291 222.025 159.66 221.803 159.801 221.357C159.824 221.264 159.836 221.17 159.836 221.076C159.836 220.561 159.525 220.109 158.904 219.723C158.295 219.359 157.533 219.178 156.619 219.178C155.377 219.178 154.369 219.582 153.596 220.391C152.904 221.117 152.559 222.055 152.559 223.203ZM162.585 229.812C162.374 229.812 162.204 229.654 162.075 229.338C161.911 228.928 161.765 228.67 161.636 228.564C161.483 228.459 161.308 228.406 161.108 228.406C160.686 228.406 160.417 228.588 160.3 228.951C160.276 229.045 160.265 229.133 160.265 229.215C160.265 229.602 160.499 229.918 160.968 230.164C161.296 230.34 161.677 230.428 162.11 230.428C163.095 230.428 163.909 229.859 164.554 228.723C164.8 228.312 165.034 227.814 165.257 227.229L167.893 220.391C168.093 220.074 168.286 219.904 168.474 219.881C168.731 219.881 168.872 219.793 168.895 219.617C168.907 219.559 168.913 219.5 168.913 219.441H166.188V219.881H167.507L165.591 224.785L163.464 219.881H164.536V219.441H160.405V219.881H161.143L164.571 227.369C164.009 228.764 163.47 229.555 162.954 229.742C162.825 229.789 162.702 229.812 162.585 229.812Z" fill="white"/>
<g opacity="0.2">
<path d="M-26.9317 192.58C-17.848 190.82 21.1817 178.041 74.1033 198.849C140.255 224.858 154.913 296.153 273.102 288.487" stroke="white"/>
<path d="M-36.7134 230.208C-27.6298 228.449 11.4 215.669 64.3216 236.477C130.474 262.486 145.131 333.781 263.321 326.115" stroke="white"/>
<path d="M-34.3509 221.152C-25.2672 219.393 13.7625 206.614 66.6841 227.421C132.836 253.43 147.494 324.726 265.683 317.059" stroke="white"/>
<path d="M-32.0586 212.088C-22.9174 210.182 16.4165 196.63 69.338 217.437C135.49 243.446 149.439 316.544 268.214 307.389" stroke="white"/>
<path d="M-29.4047 202.104C-20.2923 200.271 18.8895 187.105 71.8111 207.913C137.963 233.922 152.266 306.119 270.749 297.708" stroke="white"/>
</g>
</g>
<defs>
<filter id="filter0_d_1_1522" x="54" y="17" width="104" height="104" filterUnits="userSpaceOnUse" color-interpolation-filters="sRGB">
<feFlood flood-opacity="0" result="BackgroundImageFix"/>
<feColorMatrix in="SourceAlpha" type="matrix" values="0 0 0 0 0 0 0 0 0 0 0 0 0 0 0 0 0 0 127 0" result="hardAlpha"/>
<feOffset dy="6"/>
<feGaussianBlur stdDeviation="8"/>
<feColorMatrix type="matrix" values="0 0 0 0 0 0 0 0 0 0.870588 0 0 0 0 0.639216 0 0 0 0.16 0"/>
<feBlend mode="normal" in2="BackgroundImageFix" result="effect1_dropShadow_1_1522"/>
<feBlend mode="normal" in="SourceGraphic" in2="effect1_dropShadow_1_1522" result="shape"/>
</filter>
<clipPath id="clip0_1_1522">
<rect x="0.5" width="216" height="269" rx="16" fill="white"/>
</clipPath>
</defs>
</svg>
