<svg width="832" height="292" viewBox="0 0 832 292" fill="none" xmlns="http://www.w3.org/2000/svg">
<mask id="mask0_1_1402" style="mask-type:alpha" maskUnits="userSpaceOnUse" x="0" y="74" width="832" height="218">
<rect y="74.166" width="831.004" height="217.015" rx="16" fill="white"/>
</mask>
<g mask="url(#mask0_1_1402)">
<path d="M12.0258 151.303H-13.7808C-14.8853 151.303 -15.7808 152.199 -15.7808 153.303V227.672C-15.7808 228.777 -14.8853 229.672 -13.7807 229.672H847.527C848.631 229.672 849.527 228.777 849.527 227.672V153.303C849.527 152.199 848.631 151.303 847.527 151.303H711.593C711.113 151.303 710.65 151.131 710.287 150.818L678.841 123.69C678.121 123.069 677.065 123.04 676.313 123.621L653.159 141.478C652.449 142.025 651.463 142.033 650.744 141.499L626.517 123.482C625.828 122.969 624.888 122.954 624.183 123.444L597.776 141.773C597.211 142.165 596.484 142.239 595.852 141.97L578.076 134.398C576.962 133.924 575.686 134.54 575.364 135.707L549.895 228.058C549.398 229.861 546.918 230.055 546.146 228.351L525.212 182.146C524.888 181.431 524.176 180.971 523.391 180.971H503.38C502.493 180.971 501.712 180.387 501.461 179.537L477.542 98.3699C477.047 96.6909 474.787 96.4126 473.9 97.9214L448.872 140.482C448.269 141.508 446.909 141.783 445.955 141.073L422.67 123.757C421.817 123.122 420.615 123.267 419.936 124.086L398.001 150.579C397.621 151.038 397.056 151.303 396.46 151.303H311.185C310.462 151.303 309.796 150.914 309.442 150.284L294.001 122.86C293.913 122.703 293.804 122.559 293.677 122.432L267.218 95.8015C266.288 94.8662 264.724 95.0702 264.066 96.2125L254.266 113.218C254.076 113.548 253.795 113.817 253.457 113.993L217.386 132.771C216.563 133.199 215.553 133.005 214.947 132.302L193.677 107.601C192.644 106.401 190.693 106.82 190.244 108.337L166.035 190.036C165.442 192.037 162.565 191.906 162.156 189.859L140.057 79.239C139.699 77.4463 137.322 77.0341 136.381 78.6014L115.58 113.253C115.395 113.561 115.13 113.814 114.814 113.984L87.9568 128.447C87.8208 128.521 87.6936 128.609 87.578 128.712L63.262 150.278C62.5812 150.882 61.5787 150.95 60.8225 150.444L36.7133 134.307C35.9956 133.827 35.0507 133.862 34.37 134.393L13.2567 150.88C12.9052 151.154 12.4719 151.303 12.0258 151.303Z" fill="url(#paint0_linear_1_1402)"/>
<path d="M-15.7808 151.303H12.0258C12.4719 151.303 12.9052 151.154 13.2567 150.88L34.37 134.393C35.0507 133.862 35.9956 133.827 36.7133 134.307L60.8225 150.444C61.5787 150.95 62.5812 150.882 63.262 150.278L87.578 128.712C87.6936 128.609 87.8207 128.521 87.9568 128.447L114.814 113.984C115.13 113.814 115.395 113.561 115.58 113.253L136.381 78.6014C137.322 77.0341 139.699 77.4463 140.057 79.239L162.156 189.859C162.565 191.906 165.442 192.037 166.035 190.036L190.244 108.337C190.693 106.82 192.644 106.401 193.677 107.601L214.947 132.302C215.553 133.005 216.563 133.199 217.386 132.771L253.457 113.993C253.795 113.817 254.076 113.548 254.266 113.218L264.066 96.2125C264.724 95.0702 266.288 94.8662 267.218 95.8015L293.677 122.432C293.804 122.559 293.913 122.703 294.001 122.86L309.442 150.284C309.796 150.914 310.462 151.303 311.185 151.303H396.46C397.056 151.303 397.621 151.038 398.001 150.579L419.936 124.086C420.615 123.267 421.817 123.122 422.67 123.757L445.955 141.073C446.909 141.783 448.269 141.508 448.872 140.482L473.9 97.9214C474.787 96.4126 477.047 96.6909 477.542 98.3699L501.461 179.537C501.712 180.387 502.493 180.971 503.379 180.971H523.391C524.176 180.971 524.888 181.431 525.212 182.146L546.146 228.351C546.918 230.055 549.398 229.861 549.895 228.058L575.364 135.707C575.686 134.54 576.962 133.924 578.075 134.398L595.852 141.97C596.484 142.239 597.211 142.165 597.776 141.773L624.183 123.444C624.888 122.954 625.828 122.969 626.517 123.482L650.744 141.499C651.463 142.033 652.449 142.025 653.159 141.478L676.313 123.621C677.065 123.04 678.121 123.069 678.841 123.69L710.287 150.818C710.65 151.131 711.113 151.303 711.593 151.303H849.527" stroke="#00DEA3" stroke-width="3"/>
<path d="M49.0009 185.337H-8.72363C-10.3805 185.337 -11.7236 186.68 -11.7236 188.337V305.692C-11.7236 307.349 -10.3805 308.692 -8.72364 308.692H834.94C836.597 308.692 837.94 307.349 837.94 305.692V188.337C837.94 186.68 836.597 185.337 834.94 185.337H815.703C815.483 185.337 815.264 185.313 815.05 185.265L768.303 174.836C768.089 174.788 767.87 174.764 767.65 174.764H710.999C710.625 174.764 710.255 174.833 709.908 174.969L683.879 185.131C683.531 185.267 683.161 185.337 682.788 185.337H647.874C647.459 185.337 647.049 185.423 646.669 185.589L626.126 194.595C625.913 194.688 625.712 194.806 625.527 194.945L605.833 209.754C605.609 209.923 605.41 210.121 605.241 210.345L593.685 225.658C593.294 226.176 592.747 226.553 592.124 226.733L573.385 232.152C572.981 232.269 572.606 232.469 572.285 232.74L551.128 250.572C549.96 251.557 548.239 251.506 547.13 250.455L498.3 204.134L473.935 185.684C473.632 185.455 473.288 185.285 472.921 185.184L435.111 174.764L418.087 168.117C417.423 167.857 416.687 167.843 416.013 168.077L368.033 184.729C366.959 185.101 365.767 184.835 364.954 184.042L350.203 169.643C349.086 168.553 347.32 168.501 346.141 169.524L328.762 184.603C328.216 185.076 327.518 185.337 326.796 185.337H290.958C290.067 185.337 289.222 184.941 288.652 184.256L275.071 167.941C274.946 167.791 274.806 167.653 274.654 167.529L257.701 153.801C256.141 152.538 253.803 153.134 253.039 154.991L248.089 167.018C247.9 167.475 247.602 167.879 247.219 168.193L227.193 184.654C226.656 185.096 225.983 185.337 225.288 185.337H204.915C204.193 185.337 203.495 185.598 202.949 186.071L159.33 223.916C157.848 225.202 155.552 224.743 154.678 222.986L125.306 163.934C124.465 162.242 122.287 161.74 120.789 162.894L69.4634 202.438C68.2215 203.395 66.4522 203.234 65.4031 202.069L51.2303 186.329C50.6614 185.698 49.8511 185.337 49.0009 185.337Z" fill="url(#paint1_linear_1_1402)" stroke="#5A55D2" stroke-width="3" stroke-linejoin="round"/>
</g>
<path d="M267 1V291" stroke="url(#paint2_linear_1_1402)" stroke-width="2" stroke-linecap="round" stroke-linejoin="round"/>
<circle opacity="0.2" cx="267.384" cy="93.9518" r="36" fill="url(#paint3_radial_1_1402)"/>
<g filter="url(#filter0_d_1_1402)">
<circle cx="267.384" cy="93.9518" r="8" fill="#00DEA3"/>
</g>
<path d="M290.518 228.144V227.875H286.018L285.995 229.89H286.264L286.475 229.281C286.577 229.007 286.753 228.851 287.003 228.812C287.057 228.804 287.112 228.797 287.167 228.789L289.264 228.8L287.178 231.191L287.46 231.425C287.741 231.308 288.01 231.25 288.268 231.25C288.838 231.25 289.225 231.543 289.428 232.129C289.514 232.371 289.557 232.636 289.557 232.925C289.542 234.144 288.979 234.757 287.87 234.765C287.44 234.765 287.178 234.574 287.085 234.191C287.069 234.105 287.053 233.976 287.038 233.804C286.999 233.414 286.913 233.168 286.78 233.066C286.678 232.988 286.546 232.949 286.381 232.949C286.038 232.949 285.835 233.113 285.772 233.441C285.764 233.496 285.76 233.547 285.76 233.593C285.76 234.164 286.088 234.582 286.745 234.847C287.12 234.996 287.546 235.07 288.022 235.07C289.03 235.07 289.792 234.742 290.307 234.086C290.612 233.687 290.764 233.246 290.764 232.761C290.764 232.129 290.518 231.636 290.026 231.285C289.651 231.019 289.194 230.886 288.655 230.886C288.389 230.886 288.131 230.914 287.881 230.968L290.518 228.144ZM292.962 230.218C292.962 229.937 292.837 229.734 292.587 229.609C292.485 229.562 292.384 229.539 292.282 229.539C292.001 229.539 291.798 229.668 291.673 229.925C291.634 230.019 291.614 230.117 291.614 230.218C291.614 230.523 291.747 230.73 292.013 230.839C292.098 230.879 292.188 230.898 292.282 230.898C292.571 230.898 292.774 230.769 292.891 230.511C292.938 230.418 292.962 230.32 292.962 230.218ZM292.962 232.937C292.962 232.656 292.841 232.449 292.598 232.316C292.497 232.261 292.391 232.234 292.282 232.234C292.009 232.234 291.809 232.363 291.684 232.621C291.638 232.722 291.614 232.828 291.614 232.937C291.614 233.226 291.747 233.429 292.013 233.547C292.098 233.586 292.188 233.605 292.282 233.605C292.571 233.605 292.774 233.48 292.891 233.23C292.938 233.129 292.962 233.031 292.962 232.937ZM298.651 232.785C298.651 232.011 298.351 231.422 297.749 231.015C297.351 230.75 296.878 230.617 296.331 230.617C295.714 230.625 295.171 230.781 294.702 231.086V228.859C295.343 228.922 295.878 228.953 296.308 228.953C297.136 228.953 297.659 228.847 297.878 228.636C298.073 228.425 298.171 228.015 298.171 227.406H297.878C297.808 227.656 297.659 227.816 297.433 227.886C297.253 227.933 296.98 227.957 296.612 227.957C296.386 227.957 295.956 227.941 295.323 227.91C294.894 227.894 294.558 227.882 294.316 227.875V231.238L294.702 231.531C295.093 231.211 295.519 231.05 295.98 231.05C296.659 231.05 297.108 231.379 297.327 232.035C297.405 232.277 297.444 232.543 297.444 232.832C297.444 233.769 297.151 234.371 296.566 234.636C296.37 234.722 296.155 234.765 295.921 234.765C295.499 234.765 295.249 234.578 295.171 234.203C295.155 234.125 295.14 233.996 295.124 233.816C295.093 233.425 295.011 233.175 294.878 233.066C294.769 232.988 294.628 232.949 294.456 232.949C294.112 232.949 293.905 233.105 293.835 233.418C293.827 233.48 293.823 233.539 293.823 233.593C293.823 234.093 294.089 234.488 294.62 234.777C294.987 234.972 295.421 235.07 295.921 235.07C296.882 235.07 297.62 234.777 298.136 234.191C298.48 233.793 298.651 233.324 298.651 232.785ZM304.423 231.191C304.423 229.793 304.036 228.804 303.263 228.226C302.841 227.914 302.341 227.757 301.763 227.757C300.826 227.757 300.134 228.066 299.689 228.683C299.423 229.05 299.29 229.476 299.29 229.961C299.29 230.797 299.634 231.394 300.322 231.754C300.689 231.949 301.115 232.047 301.599 232.047C302.185 232.039 302.704 231.871 303.158 231.543C303.126 233.238 302.802 234.261 302.185 234.613C301.997 234.714 301.79 234.765 301.564 234.765C301.118 234.765 300.849 234.582 300.755 234.214C300.732 234.144 300.712 234.035 300.697 233.886C300.65 233.535 300.56 233.312 300.427 233.218C300.326 233.156 300.197 233.125 300.04 233.125C299.704 233.125 299.493 233.269 299.408 233.558C299.392 233.621 299.384 233.687 299.384 233.757C299.384 234.187 299.642 234.531 300.158 234.789C300.525 234.976 300.943 235.07 301.411 235.07C302.552 235.07 303.388 234.574 303.919 233.582C304.255 232.933 304.423 232.136 304.423 231.191ZM300.497 229.785C300.513 228.644 300.939 228.07 301.775 228.062C302.525 228.062 302.966 228.5 303.099 229.375C303.122 229.547 303.134 229.726 303.134 229.914C303.134 230.953 302.771 231.535 302.044 231.66C301.951 231.675 301.857 231.683 301.763 231.683C300.927 231.668 300.505 231.035 300.497 229.785ZM312.093 234.132C312.093 233.953 312.035 233.855 311.918 233.839C311.878 233.832 311.839 233.828 311.8 233.828H311.425L308.707 227.101H308.086L305.484 233.828H304.746V234.132H306.855C306.855 233.961 306.804 233.863 306.703 233.839C306.656 233.832 306.609 233.828 306.562 233.828H305.953L306.82 231.554H309.222L310.101 233.828H309.316V234.132H312.093ZM309.082 231.214H306.949L308.015 228.437L309.082 231.214ZM321.064 227.101H318.92L316.576 232.562L313.963 227.101H312.111V227.406H313.049V233.828H312.111V234.132H314.467C314.404 233.945 314.299 233.843 314.15 233.828H313.529V229.023L316.06 234.214H316.295L318.92 228.203V233.828H317.982V234.132H321.064C321.064 233.961 321.002 233.863 320.877 233.839C320.838 233.832 320.799 233.828 320.76 233.828H320.127V227.406H321.064V227.101Z" fill="#00523C"/>
<defs>
<filter id="filter0_d_1_1402" x="251.384" y="81.9518" width="32" height="32" filterUnits="userSpaceOnUse" color-interpolation-filters="sRGB">
<feFlood flood-opacity="0" result="BackgroundImageFix"/>
<feColorMatrix in="SourceAlpha" type="matrix" values="0 0 0 0 0 0 0 0 0 0 0 0 0 0 0 0 0 0 127 0" result="hardAlpha"/>
<feOffset dy="4"/>
<feGaussianBlur stdDeviation="4"/>
<feComposite in2="hardAlpha" operator="out"/>
<feColorMatrix type="matrix" values="0 0 0 0 0 0 0 0 0 0.870588 0 0 0 0 0.639216 0 0 0 0.32 0"/>
<feBlend mode="normal" in2="BackgroundImageFix" result="effect1_dropShadow_1_1402"/>
<feBlend mode="normal" in="SourceGraphic" in2="effect1_dropShadow_1_1402" result="shape"/>
</filter>
<linearGradient id="paint0_linear_1_1402" x1="432.178" y1="-50.3245" x2="432.178" y2="206.191" gradientUnits="userSpaceOnUse">
<stop offset="0.171875" stop-color="#18BFEF"/>
<stop offset="0.880208" stop-color="#D3FF76" stop-opacity="0"/>
</linearGradient>
<linearGradient id="paint1_linear_1_1402" x1="426.5" y1="103.5" x2="428" y2="266.5" gradientUnits="userSpaceOnUse">
<stop offset="0.113029" stop-color="#5A55D2" stop-opacity="0.24"/>
<stop offset="1" stop-color="#5A55D2" stop-opacity="0"/>
</linearGradient>
<linearGradient id="paint2_linear_1_1402" x1="267" y1="291" x2="267" y2="1" gradientUnits="userSpaceOnUse">
<stop stop-color="#00DEA3" stop-opacity="0"/>
<stop offset="0.457573" stop-color="#00DEA3"/>
<stop offset="1" stop-color="#00DEA3" stop-opacity="0"/>
</linearGradient>
<radialGradient id="paint3_radial_1_1402" cx="0" cy="0" r="1" gradientUnits="userSpaceOnUse" gradientTransform="translate(267.384 93.9518) rotate(28.5925) scale(50.1704)">
<stop stop-color="#00DEA3"/>
<stop offset="1" stop-color="#00DEA3" stop-opacity="0"/>
</radialGradient>
</defs>
</svg>
