<svg width="1614" height="720" viewBox="0 0 1614 720" fill="none" xmlns="http://www.w3.org/2000/svg">
<path d="M-70 788.148C-28.1704 742.672 141.33 502.747 445.898 502.747C826.608 502.747 1039.39 1061.79 1613.49 599.971" stroke="white" stroke-width="0.987317"/>
<path d="M-70 286.658C-28.1704 241.182 141.33 1.25647 445.898 1.25647C826.608 1.25647 1039.39 560.298 1613.49 98.4811" stroke="white" stroke-width="0.987317"/>
<path d="M-70 771.971C-28.1704 726.495 141.33 486.57 445.898 486.57C826.608 486.57 1039.39 1045.61 1613.49 583.794" stroke="white" stroke-width="0.987317"/>
<path d="M-70 755.794C-28.1704 710.318 141.33 470.393 445.898 470.393C826.608 470.393 1039.39 1029.43 1613.49 567.618" stroke="white" stroke-width="0.987317"/>
<path d="M-70 739.617C-28.1704 694.141 141.33 454.216 445.898 454.216C826.608 454.216 1039.39 1013.26 1613.49 551.44" stroke="white" stroke-width="0.987317"/>
<path d="M-70 723.439C-28.1704 677.963 141.33 438.038 445.898 438.038C826.608 438.038 1039.39 997.08 1613.49 535.263" stroke="white" stroke-width="0.987317"/>
<path d="M-70 707.262C-28.1704 661.786 141.33 421.861 445.898 421.861C826.608 421.861 1039.39 980.903 1613.49 519.086" stroke="white" stroke-width="0.987317"/>
<path d="M-70 691.086C-28.1704 645.61 141.33 405.684 445.898 405.684C826.608 405.684 1039.39 964.726 1613.49 502.909" stroke="white" stroke-width="0.987317"/>
<path d="M-70 674.909C-28.1704 629.433 141.33 389.507 445.898 389.507C826.608 389.507 1039.39 948.549 1613.49 486.732" stroke="white" stroke-width="0.987317"/>
<path d="M-70 658.732C-28.1704 613.256 141.33 373.33 445.898 373.33C826.608 373.33 1039.39 932.372 1613.49 470.555" stroke="white" stroke-width="0.987317"/>
<path d="M-70 642.554C-28.1704 597.078 141.33 357.153 445.898 357.153C826.608 357.153 1039.39 916.194 1613.49 454.378" stroke="white" stroke-width="0.987317"/>
<path d="M-70 626.377C-28.1704 580.901 141.33 340.976 445.898 340.976C826.608 340.976 1039.39 900.017 1613.49 438.201" stroke="white" stroke-width="0.987317"/>
<path d="M-70 610.2C-28.1704 564.724 141.33 324.799 445.898 324.799C826.608 324.799 1039.39 883.841 1613.49 422.024" stroke="white" stroke-width="0.987317"/>
<path d="M-70 594.023C-28.1704 548.547 141.33 308.622 445.898 308.622C826.608 308.622 1039.39 867.663 1613.49 405.846" stroke="white" stroke-width="0.987317"/>
<path d="M-70 577.846C-28.1704 532.37 141.33 292.444 445.898 292.444C826.608 292.444 1039.39 851.486 1613.49 389.669" stroke="white" stroke-width="0.987317"/>
<path d="M-70 561.669C-28.1704 516.193 141.33 276.268 445.898 276.268C826.608 276.268 1039.39 835.309 1613.49 373.492" stroke="white" stroke-width="0.987317"/>
<path d="M-70 545.492C-28.1704 500.016 141.33 260.091 445.898 260.091C826.608 260.091 1039.39 819.132 1613.49 357.315" stroke="white" stroke-width="0.987317"/>
<path d="M-70 529.314C-28.1704 483.838 141.33 243.913 445.898 243.913C826.608 243.913 1039.39 802.955 1613.49 341.138" stroke="white" stroke-width="0.987317"/>
<path d="M-70 513.137C-28.1704 467.661 141.33 227.736 445.898 227.736C826.608 227.736 1039.39 786.777 1613.49 324.96" stroke="white" stroke-width="0.987317"/>
<path d="M-70 496.96C-28.1704 451.484 141.33 211.559 445.898 211.559C826.608 211.559 1039.39 770.6 1613.49 308.783" stroke="white" stroke-width="0.987317"/>
<path d="M-70 480.783C-28.1704 435.307 141.33 195.382 445.898 195.382C826.608 195.382 1039.39 754.423 1613.49 292.607" stroke="white" stroke-width="0.987317"/>
<path d="M-70 464.606C-28.1704 419.13 141.33 179.205 445.898 179.205C826.608 179.205 1039.39 738.246 1613.49 276.429" stroke="white" stroke-width="0.987317"/>
<path d="M-70 448.428C-28.1704 402.952 141.33 163.027 445.898 163.027C826.608 163.027 1039.39 722.069 1613.49 260.252" stroke="white" stroke-width="0.987317"/>
<path d="M-70 432.252C-28.1704 386.776 141.33 146.851 445.898 146.851C826.608 146.851 1039.39 705.892 1613.49 244.075" stroke="white" stroke-width="0.987317"/>
<path d="M-70 416.075C-28.1704 370.598 141.33 130.673 445.898 130.673C826.608 130.673 1039.39 689.715 1613.49 227.898" stroke="white" stroke-width="0.987317"/>
<path d="M-70 399.897C-28.1704 354.421 141.33 114.496 445.898 114.496C826.608 114.496 1039.39 673.537 1613.49 211.721" stroke="white" stroke-width="0.987317"/>
<path d="M-70 383.72C-28.1704 338.244 141.33 98.319 445.898 98.319C826.608 98.319 1039.39 657.36 1613.49 195.544" stroke="white" stroke-width="0.987317"/>
<path d="M-70 367.544C-28.1704 322.068 141.33 82.1425 445.898 82.1425C826.608 82.1425 1039.39 641.184 1613.49 179.367" stroke="white" stroke-width="0.987317"/>
<path d="M-70 351.366C-28.1704 305.89 141.33 65.9651 445.898 65.9651C826.608 65.9651 1039.39 625.007 1613.49 163.19" stroke="white" stroke-width="0.987317"/>
<path d="M-70 335.189C-28.1704 289.713 141.33 49.7877 445.898 49.7877C826.608 49.7877 1039.39 608.829 1613.49 147.012" stroke="white" stroke-width="0.987317"/>
<path d="M-70 319.012C-28.1704 273.536 141.33 33.6104 445.898 33.6104C826.608 33.6104 1039.39 592.652 1613.49 130.835" stroke="white" stroke-width="0.987317"/>
<path d="M-70 302.835C-28.1704 257.359 141.33 17.4338 445.898 17.4338C826.608 17.4338 1039.39 576.475 1613.49 114.658" stroke="white" stroke-width="0.987317"/>
</svg>
