<?xml version="1.0" encoding="utf-8"?>
<svg xmlns="http://www.w3.org/2000/svg" viewBox="0 0 48 48" width="150" height="150">
  <path fill="#9fdadf" d="M28.962,4.54c-4.228,0.198-8.445-0.603-12.673-0.405c-1.462,0.068-2.934,0.138-4.357,0.473 c-2.208,0.52-4.293,1.727-5.585,3.553c-2.238,3.165-1.731,7.372-1.522,11.214c0.24,4.406,1.091,8.83,0.485,13.202 c-0.274,1.974-0.592,4.778,0.328,6.556c0.732,1.415,2.165,2.387,3.693,2.92s3.164,0.68,4.78,0.822 c8.074,0.711,15.056,0.737,23.152,0.323c1.01-0.052,2.06-0.133,2.931-0.636c0.678-0.392,1.19-1.011,1.594-1.673 c2.104-3.452,1.424-7.789,1.073-11.792c-0.352-4.01-0.302-8.053,0.148-12.053c0.269-2.389,0.68-3.805,0.318-6.182 c-0.362-2.378-1.668-4.777-3.916-5.752c-1.373-0.595-2.927-0.6-4.429-0.594C32.971,4.524,30.972,4.533,28.962,4.54z" />
  <path fill="#38b47b" d="M42.1,40.331c-3.68-4.976-9.451-9.765-15.525-10.621c-3.856-0.544-7.844,0.297-11.316,2.084 c-3.472,1.787-6.776,4.93-9.158,8.054c0,0,1.318,1.901,3.764,2.374c2.447,0.473,10.532,1.246,14.066,1.246 s13.133,0.391,15.129-0.477S42.1,40.331,42.1,40.331z" />
  <path fill="#fcbf95" d="M24.391,12.568c-2.357-0.071-3.721,0.519-4.87,1.791c-1.713,1.894-1.937,4.036-1.96,6.534 c-0.014,1.506,0.037,3.012,0.152,4.514c0.087,1.131,0.214,2.279,0.671,3.327c0.79,1.813,2.498,3.148,4.364,3.986 c1.585,0.712,3.497,1.102,5.063,0.353c0.948-0.454,1.646-1.269,2.221-2.117c2.803-4.13,3.212-9.635,1.047-14.098 c-0.587-1.21-1.366-2.363-2.457-3.2S25.792,12.611,24.391,12.568z" />
  <path fill="#010101" d="M43.358,29.054c-0.348-3.97-0.299-7.992,0.147-11.954c0.063-0.556,0.133-1.059,0.199-1.533 c0.217-1.55,0.403-2.888,0.115-4.779c-0.44-2.89-2.015-5.183-4.211-6.136c-1.495-0.647-3.159-0.648-4.63-0.635L28.96,4.04 l-0.021,0.001c-2.081,0.1-4.215-0.054-6.277-0.202c-2.09-0.147-4.251-0.302-6.395-0.202c-1.464,0.068-2.978,0.139-4.448,0.485 c-2.497,0.588-4.585,1.92-5.879,3.75c-2.131,3.015-1.9,6.796-1.677,10.452l0.063,1.079c0.071,1.312,0.198,2.643,0.321,3.929 c0.288,3.026,0.587,6.155,0.168,9.178c-0.348,2.507-0.542,5.073,0.379,6.854c0.724,1.398,2.135,2.521,3.973,3.162 c1.598,0.559,3.277,0.705,4.9,0.848c4.531,0.399,8.823,0.595,13.383,0.595c3.104,0,6.331-0.091,9.839-0.271 c1.122-0.058,2.208-0.154,3.155-0.702c0.67-0.387,1.249-0.99,1.771-1.846c1.982-3.252,1.612-7.142,1.254-10.902L43.358,29.054z M41.361,40.629c-0.433,0.709-0.896,1.199-1.417,1.501c-0.755,0.437-1.711,0.518-2.706,0.569 c-8.611,0.438-15.517,0.345-23.083-0.322c-1.563-0.137-3.179-0.278-4.658-0.795c-1.143-0.399-2.083-1.002-2.751-1.74 c2.578-3.301,5.748-6.061,8.744-7.602c1.18-0.612,2.407-1.094,3.652-1.454c0.859,0.95,2.017,1.769,3.4,2.391 c1.183,0.531,2.325,0.799,3.363,0.799c0.775,0,1.492-0.15,2.121-0.451c1.11-0.531,1.871-1.494,2.362-2.206 c4.503,1.878,8.497,5.608,11.106,9.049C41.446,40.453,41.413,40.544,41.361,40.629z M29.619,30.676 c-0.424,0.622-1.094,1.501-2.024,1.946c-1.62,0.778-3.604,0.108-4.643-0.357c-1.993-0.896-3.453-2.22-4.11-3.73 c-0.436-1-0.551-2.111-0.63-3.165c-0.114-1.484-0.165-2.989-0.15-4.471c0.02-2.225,0.175-4.372,1.83-6.204 c1.048-1.159,2.222-1.632,4.111-1.632c0.121,0,0.246,0.002,0.374,0.006c1.832,0.055,3.158,0.387,3.94,0.986 c0.907,0.695,1.663,1.685,2.312,3.021C32.71,21.367,32.313,26.705,29.619,30.676z M42.362,29.142l0.111,1.2 c0.296,3.107,0.593,6.302-0.493,9.028c-3.206-4.13-7.105-7.252-11.047-8.905c2.444-4.164,2.697-9.491,0.596-13.824 c-0.719-1.481-1.57-2.587-2.604-3.379c-0.966-0.741-2.444-1.131-4.52-1.193c-2.366-0.063-3.952,0.513-5.257,1.956 c-1.89,2.092-2.066,4.44-2.088,6.864c-0.015,1.511,0.037,3.044,0.152,4.557c0.083,1.089,0.213,2.346,0.712,3.488 c0.154,0.354,0.354,0.695,0.578,1.028c-1.182,0.357-2.349,0.808-3.474,1.389c-3.052,1.573-6.258,4.339-8.893,7.646 c-0.017-0.031-0.038-0.06-0.054-0.091c-0.902-1.744-0.48-4.793-0.277-6.258c0.436-3.138,0.131-6.326-0.163-9.409 c-0.122-1.276-0.248-2.597-0.318-3.889l-0.063-1.086c-0.213-3.483-0.433-7.086,1.495-9.813c1.137-1.607,3.065-2.83,5.291-3.355 c1.381-0.324,2.848-0.394,4.267-0.46c0.459-0.021,0.921-0.03,1.384-0.03c1.637,0,3.286,0.117,4.894,0.232 c2.086,0.147,4.241,0.299,6.384,0.203l6.009-0.023C36.356,5,37.909,5.005,39.211,5.569c2.213,0.959,3.321,3.402,3.621,5.368 c0.266,1.747,0.097,2.958-0.117,4.49c-0.067,0.482-0.14,0.994-0.203,1.561C42.059,21.016,42.009,25.104,42.362,29.142z" />
</svg>